<svg version="1.1" xmlns="http://www.w3.org/2000/svg" viewBox="0 0 1680.628191035309 1087.6223077906088" width="1680.628191035309" height="1087.6223077906088">
  <!-- svg-source:excalidraw -->
  
  <defs>
    <style class="style-fonts">
      @font-face {
        font-family: "Virgil";
        src: url("https://excalidraw.com/Virgil.woff2");
      }
      @font-face {
        font-family: "Cascadia";
        src: url("https://excalidraw.com/Cascadia.woff2");
      }
    </style>
    
  </defs>
  <rect x="0" y="0" width="1680.628191035309" height="1087.6223077906088" fill="#ffffff"></rect><g stroke-linecap="round" transform="translate(105.5355383412504 215.33923448830132) rotate(0 127 42)"><path d="M21 0 M21 0 C84.3 -1.27, 147.06 0.49, 233 0 M21 0 C88.73 0.04, 156.38 0.41, 233 0 M233 0 C247.3 -0.98, 255.76 5.52, 254 21 M233 0 C249.21 -1.66, 253.11 6.34, 254 21 M254 21 C253.07 39.13, 252.93 54.23, 254 63 M254 21 C254.83 37.64, 253.59 53.83, 254 63 M254 63 C254.52 78.61, 248.81 86, 233 84 M254 63 C252.02 79.08, 246.29 84.69, 233 84 M233 84 C167.9 82.85, 102.13 82.08, 21 84 M233 84 C180.41 84.95, 125.5 85.68, 21 84 M21 84 C7.34 84, 1.61 75.61, 0 63 M21 84 C4.86 81.73, -0.36 77.9, 0 63 M0 63 C1.97 50.51, 1.98 39.67, 0 21 M0 63 C-0.64 47.71, 0.99 32.9, 0 21 M0 21 C-0.75 6.31, 5.28 1.9, 21 0 M0 21 C0.77 6.72, 6.76 0.07, 21 0" stroke="#1e1e1e" stroke-width="1" fill="none"></path></g><g transform="translate(210.8607336537504 245.83923448830132) rotate(0 21.6748046875 11.5)"><text x="21.6748046875" y="0" font-family="Helvetica, Segoe UI Emoji" font-size="20px" fill="#1e1e1e" text-anchor="middle" style="white-space: pre;" direction="ltr" dominant-baseline="text-before-edge">main</text></g><g stroke-linecap="round" transform="translate(104.14924299828652 300.51122308289547) rotate(0 128 42)"><path d="M4.93 5.61 C4.93 5.61, 4.93 5.61, 4.93 5.61 M4.93 5.61 C4.93 5.61, 4.93 5.61, 4.93 5.61 M0.74 16.54 C5.88 9.09, 10.07 6.56, 13.2 2.2 M0.74 16.54 C3.38 13.36, 7.55 10.07, 13.2 2.2 M0.47 22.94 C6.53 16.41, 13.34 8.64, 18.84 1.81 M0.47 22.94 C4.88 18.42, 7.6 13.64, 18.84 1.81 M0.87 28.58 C10.14 19.4, 18.49 8.64, 23.83 2.17 M0.87 28.58 C6.26 21.8, 11.33 15.14, 23.83 2.17 M0.61 34.98 C11.43 22.26, 23.4 7.66, 28.82 2.53 M0.61 34.98 C11.31 22.78, 21.46 9.64, 28.82 2.53 M1 40.62 C10.79 29.25, 19.79 19.5, 34.46 2.13 M1 40.62 C11.13 30.69, 18.97 18.65, 34.46 2.13 M0.74 47.02 C12.25 34.68, 23.56 22.92, 39.45 2.49 M0.74 47.02 C11.49 35.73, 20.18 24.62, 39.45 2.49 M0.48 53.42 C16.94 36.96, 32.37 18.12, 45.09 2.1 M0.48 53.42 C17.03 33.05, 35.28 13.92, 45.09 2.1 M0.87 59.06 C16.89 42.92, 30.66 24.4, 50.08 2.46 M0.87 59.06 C19.84 36.06, 38.79 14.4, 50.08 2.46 M0.61 65.46 C20.53 42.5, 40.76 20.37, 55.72 2.06 M0.61 65.46 C21.59 43.48, 39.61 19.62, 55.72 2.06 M2.32 69.59 C21.59 48.13, 44.85 25.1, 60.71 2.42 M2.32 69.59 C21.4 47.27, 41.28 24.97, 60.71 2.42 M4.03 73.73 C19.4 58.92, 32.95 41.56, 66.35 2.03 M4.03 73.73 C24.48 51.45, 42.06 28.86, 66.35 2.03 M5.73 77.86 C23.15 55.38, 44.49 32.83, 71.34 2.39 M5.73 77.86 C21.47 59.95, 35.8 41.64, 71.34 2.39 M8.1 81.24 C33.29 55.32, 56.66 26.26, 76.98 1.99 M8.1 81.24 C32.14 54.5, 55.26 26.14, 76.98 1.99 M11.77 83.11 C37.33 52.48, 64.08 21.86, 81.97 2.35 M11.77 83.11 C26.46 65.61, 42.03 47.73, 81.97 2.35 M16.76 83.47 C37.29 61.19, 57.77 36.8, 87.61 1.96 M16.76 83.47 C35.78 60.78, 56.59 37.79, 87.61 1.96 M21.09 84.58 C39.29 64.03, 55.78 46.83, 92.6 2.32 M21.09 84.58 C41.36 62.06, 60.9 41.52, 92.6 2.32 M26.73 84.19 C45.13 62.69, 63.31 42.81, 97.59 2.68 M26.73 84.19 C49.44 56.87, 73.3 29.13, 97.59 2.68 M31.72 84.55 C47.02 66.77, 62.67 50.82, 103.23 2.28 M31.72 84.55 C55.44 58.29, 77.3 31.36, 103.23 2.28 M37.36 84.15 C55.7 61.3, 74.95 38.09, 108.22 2.64 M37.36 84.15 C54.99 63.38, 70.92 44.29, 108.22 2.64 M42.35 84.51 C60.17 62.35, 83.55 39.72, 113.86 2.25 M42.35 84.51 C68.39 54, 93.7 24.63, 113.86 2.25 M47.99 84.12 C63.63 65.36, 81.28 45.64, 118.85 2.61 M47.99 84.12 C72.05 57.31, 94.43 31.8, 118.85 2.61 M52.98 84.48 C78.57 56.51, 104.22 25.67, 124.49 2.22 M52.98 84.48 C77.42 55.12, 102.1 27.45, 124.49 2.22 M58.62 84.08 C82.06 53.99, 108.56 24.04, 129.48 2.58 M58.62 84.08 C75.09 66.54, 89.87 48.22, 129.48 2.58 M63.61 84.44 C85.72 57.36, 108.59 32.49, 135.12 2.18 M63.61 84.44 C83.92 62.73, 102.03 41.09, 135.12 2.18 M69.25 84.05 C96.37 55.58, 122.83 23.37, 140.11 2.54 M69.25 84.05 C94.87 54.01, 120.07 26.11, 140.11 2.54 M74.24 84.41 C90.79 63.02, 111.86 43.15, 145.75 2.15 M74.24 84.41 C95.31 62.82, 113.67 39.53, 145.75 2.15 M79.88 84.02 C104.12 52.64, 129.51 24.58, 150.74 2.51 M79.88 84.02 C102.14 60.01, 121.95 34.84, 150.74 2.51 M84.87 84.38 C114.58 50.66, 141.58 20.51, 156.38 2.11 M84.87 84.38 C112.18 52.43, 141.45 20.27, 156.38 2.11 M90.51 83.98 C110.61 60.6, 129.58 39.16, 161.37 2.47 M90.51 83.98 C116.66 53.91, 143.93 21.74, 161.37 2.47 M95.5 84.34 C118.33 57.58, 142.18 30.5, 167.01 2.08 M95.5 84.34 C120.92 55.88, 147.55 26.72, 167.01 2.08 M101.14 83.95 C116.02 66.73, 131.98 47.54, 172 2.44 M101.14 83.95 C117.64 62.09, 136.14 42.4, 172 2.44 M106.13 84.31 C121.89 66.94, 138.03 48.84, 177.64 2.04 M106.13 84.31 C122.04 65.9, 136.01 48.27, 177.64 2.04 M111.12 84.67 C127.75 67.29, 144.81 48.53, 182.63 2.4 M111.12 84.67 C138.9 53.92, 166.06 21.95, 182.63 2.4 M116.76 84.27 C134.09 63.22, 149.79 42.18, 188.27 2.01 M116.76 84.27 C140.4 56.82, 164.05 29.26, 188.27 2.01 M121.75 84.63 C140.2 62.58, 157.65 42.9, 193.26 2.37 M121.75 84.63 C145.47 56.46, 169.65 29.63, 193.26 2.37 M127.39 84.24 C149.17 60.58, 171.68 36.59, 198.9 1.97 M127.39 84.24 C149.46 57.69, 173.74 32.51, 198.9 1.97 M132.38 84.6 C156.15 59.04, 178.87 30.33, 203.89 2.33 M132.38 84.6 C152.02 61.2, 171.69 39.37, 203.89 2.33 M138.02 84.2 C157.24 63.27, 172.91 42, 208.87 2.69 M138.02 84.2 C165.47 53.26, 190.81 23.75, 208.87 2.69 M143.01 84.56 C162.93 61.68, 181.86 43.12, 214.52 2.3 M143.01 84.56 C161.27 62.41, 181.53 40.42, 214.52 2.3 M148.65 84.17 C163.18 67.96, 178.79 53.01, 219.5 2.66 M148.65 84.17 C172.27 57.5, 196.19 29.9, 219.5 2.66 M153.64 84.53 C177.51 58.93, 200.25 29.28, 225.15 2.27 M153.64 84.53 C182.63 52.61, 211.03 18.4, 225.15 2.27 M159.28 84.13 C182.25 57.89, 205.87 32.67, 230.13 2.63 M159.28 84.13 C187.58 52.66, 214.66 22.5, 230.13 2.63 M164.27 84.49 C194.15 50.83, 219.48 22.51, 236.43 1.48 M164.27 84.49 C180.04 63.29, 198.81 44.96, 236.43 1.48 M169.91 84.1 C186.52 61.71, 207.85 43.34, 241.42 1.84 M169.91 84.1 C197.01 54.03, 222.41 22.24, 241.42 1.84 M174.9 84.46 C199.58 59.17, 222.31 28.88, 245.75 2.95 M174.9 84.46 C202.64 54.36, 229.18 23.03, 245.75 2.95 M180.54 84.06 C202.85 56.22, 223.9 33.25, 249.43 4.82 M180.54 84.06 C200.52 59.4, 222.87 36.04, 249.43 4.82 M185.53 84.43 C205.84 62.52, 223.21 38.77, 253.1 6.69 M185.53 84.43 C206.76 58.6, 227.5 34.23, 253.1 6.69 M191.17 84.03 C210.32 63.86, 230.74 40.96, 254.81 10.82 M191.17 84.03 C205.64 67.04, 220.58 50.76, 254.81 10.82 M196.16 84.39 C219.06 56.93, 242.71 31.62, 256.51 14.96 M196.16 84.39 C215.88 60.47, 238.32 37.24, 256.51 14.96 M201.8 84 C216.1 64.27, 233.44 50.49, 258.88 18.34 M201.8 84 C222.14 59.85, 243.86 37.22, 258.88 18.34 M206.79 84.36 C224.2 65.39, 242.83 43.15, 258.62 24.73 M206.79 84.36 C220.25 67.89, 233.02 52.99, 258.62 24.73 M212.43 83.96 C226.4 67.13, 243.13 49.14, 259.01 30.38 M212.43 83.96 C230.31 63.73, 246.2 43.81, 259.01 30.38 M217.42 84.32 C232.55 65.63, 249.03 46.48, 258.75 36.77 M217.42 84.32 C227.58 70.99, 238.88 58.66, 258.75 36.77 M223.06 83.93 C234.3 73.91, 242.04 61.74, 258.49 43.17 M223.06 83.93 C232.15 73.57, 241.78 62.8, 258.49 43.17 M228.05 84.29 C237.86 74.06, 246.06 63.58, 258.88 48.82 M228.05 84.29 C235.99 74.13, 244.42 63.33, 258.88 48.82 M233.03 84.65 C243.38 72.68, 253.66 62.25, 258.62 55.21 M233.03 84.65 C241.74 75.15, 249.83 65.51, 258.62 55.21 M237.36 85.76 C242.89 79.93, 246.83 71.39, 256.39 63.88 M237.36 85.76 C241.67 80.65, 244.67 76.19, 256.39 63.88 M243.66 84.61 C246.61 81.07, 249.58 78.7, 255.47 71.03 M243.66 84.61 C248.88 80.11, 252.41 73.43, 255.47 71.03" stroke="#b2f2bb" stroke-width="0.5" fill="none"></path><path d="M21 0 M21 0 C98.75 -1.31, 177.21 0.44, 235 0 M21 0 C80.6 1.8, 140.04 1.2, 235 0 M235 0 C249.85 -0.51, 254.24 8.85, 256 21 M235 0 C247.03 0.62, 255.01 7.51, 256 21 M256 21 C255.29 33.18, 256.11 44.4, 256 63 M256 21 C256.86 31.95, 255.64 42.54, 256 63 M256 63 C256.87 78.19, 250.03 83.16, 235 84 M256 63 C256.59 78.56, 248.28 82.8, 235 84 M235 84 C153.44 81.55, 71.21 82.76, 21 84 M235 84 C186.44 86, 137.88 86.14, 21 84 M21 84 C8.05 85.6, 1.4 77.91, 0 63 M21 84 C8.3 82.09, 2.18 75.53, 0 63 M0 63 C1.16 54.08, -1.95 45.81, 0 21 M0 63 C-0.55 47.57, -0.85 32.78, 0 21 M0 21 C-0.3 8.34, 6.72 -1.88, 21 0 M0 21 C1.29 6.29, 7.96 1.04, 21 0" stroke="#1e1e1e" stroke-width="1" fill="none"></path></g><g transform="translate(116.51447737328652 331.01122308289547) rotate(0 115.634765625 11.5)"><text x="115.634765625" y="0" font-family="Helvetica, Segoe UI Emoji" font-size="20px" fill="#1e1e1e" text-anchor="middle" style="white-space: pre;" direction="ltr" dominant-baseline="text-before-edge">resuming_on_new_thread</text></g><g transform="translate(277.60038065492074 188.69514385093777) rotate(0 40 11.5)"><text x="0" y="0" font-family="Helvetica, Segoe UI Emoji" font-size="20px" fill="#1e1e1e" text-anchor="start" style="white-space: pre;" direction="ltr" dominant-baseline="text-before-edge">普通函数</text></g><g transform="translate(370.4075501315134 312.84350819915943) rotate(0 20 11.5)"><text x="0" y="0" font-family="Helvetica, Segoe UI Emoji" font-size="20px" fill="#1e1e1e" text-anchor="start" style="white-space: pre;" direction="ltr" dominant-baseline="text-before-edge">协程</text></g><g stroke-linecap="round" transform="translate(982.3878908248347 92.83904543365298) rotate(0 127 42)"><path d="M21 0 M21 0 C79.73 -0.53, 134.57 0.33, 233 0 M21 0 C96.42 0.78, 170.84 2.06, 233 0 M233 0 C248.18 -0.08, 255.94 8.23, 254 21 M233 0 C245.7 0.43, 254.97 5.59, 254 21 M254 21 C251.98 35.6, 252.6 45.79, 254 63 M254 21 C255.18 29.24, 254.87 38.25, 254 63 M254 63 C253.79 77.18, 247.12 82.97, 233 84 M254 63 C252.94 78.95, 248.36 82.16, 233 84 M233 84 C184.01 86.09, 136.01 84.61, 21 84 M233 84 C159.77 85.42, 88.38 85.86, 21 84 M21 84 C6.21 82.05, -0.57 75.56, 0 63 M21 84 C6.09 82.53, -0.01 78.07, 0 63 M0 63 C0.78 47.2, 0.85 35.65, 0 21 M0 63 C0.44 51.27, 0.09 37.51, 0 21 M0 21 C-1.17 5.45, 7.5 -0.29, 21 0 M0 21 C1.79 7.62, 6.65 1.56, 21 0" stroke="#1e1e1e" stroke-width="1" fill="none"></path></g><g transform="translate(1087.7130861373348 123.33904543365298) rotate(0 21.6748046875 11.5)"><text x="21.6748046875" y="0" font-family="Helvetica, Segoe UI Emoji" font-size="20px" fill="#1e1e1e" text-anchor="middle" style="white-space: pre;" direction="ltr" dominant-baseline="text-before-edge">main</text></g><g stroke-linecap="round" transform="translate(887.8052847116758 391.6451401098239) rotate(0 128.00000000000006 42)"><path d="M4.93 5.61 C4.93 5.61, 4.93 5.61, 4.93 5.61 M4.93 5.61 C4.93 5.61, 4.93 5.61, 4.93 5.61 M0.74 16.54 C2.58 13.35, 5.86 10.86, 13.2 2.2 M0.74 16.54 C2.3 12.81, 6.32 10.63, 13.2 2.2 M0.47 22.94 C6.3 14.19, 15.44 6.12, 18.84 1.81 M0.47 22.94 C5.73 16.73, 8.96 11.99, 18.84 1.81 M0.87 28.58 C6.81 19.94, 16.83 11.13, 23.83 2.17 M0.87 28.58 C10.16 19.08, 18.04 7.67, 23.83 2.17 M0.61 34.98 C7.22 26.28, 17.08 18.22, 28.82 2.53 M0.61 34.98 C9.28 24.12, 20.36 12.37, 28.82 2.53 M1 40.62 C14.23 28, 23.2 13.45, 34.46 2.13 M1 40.62 C9.13 32.37, 15.65 24.21, 34.46 2.13 M0.74 47.02 C10.73 38.31, 15.93 28.8, 39.45 2.49 M0.74 47.02 C12.85 32.72, 24.21 19.1, 39.45 2.49 M0.48 53.42 C15.68 33.71, 35.12 15.03, 45.09 2.1 M0.48 53.42 C15.93 34.97, 30.88 18.82, 45.09 2.1 M0.87 59.06 C17.78 40.04, 35.89 20, 50.08 2.46 M0.87 59.06 C14.41 44.9, 25.8 30.6, 50.08 2.46 M0.61 65.46 C20.76 44.8, 39.12 20.43, 55.72 2.06 M0.61 65.46 C18.19 46, 35.3 24.51, 55.72 2.06 M2.32 69.59 C23.04 47.22, 42.21 23.93, 60.71 2.42 M2.32 69.59 C22.82 46.24, 42.01 24.87, 60.71 2.42 M4.03 73.73 C25.52 50.49, 45.83 28.4, 66.35 2.03 M4.03 73.73 C28.71 45.78, 53.28 18.16, 66.35 2.03 M5.73 77.86 C24.58 56.43, 45.05 33.81, 71.34 2.39 M5.73 77.86 C19.69 62.25, 34.2 46.18, 71.34 2.39 M8.1 81.24 C21.82 63.91, 37.63 47.32, 76.98 1.99 M8.1 81.24 C32.63 53.1, 57.83 23.82, 76.98 1.99 M11.77 83.11 C35.75 59.4, 55.03 31.27, 81.97 2.35 M11.77 83.11 C39.64 51.12, 64.66 22.04, 81.97 2.35 M16.76 83.47 C40.5 54.17, 63.53 29.64, 87.61 1.96 M16.76 83.47 C40.31 56.25, 64.89 27.35, 87.61 1.96 M21.09 84.58 C36.1 67.5, 53.97 48.52, 92.6 2.32 M21.09 84.58 C37.16 65.78, 55.2 45.77, 92.6 2.32 M26.73 84.19 C54.59 52.79, 79.21 20.1, 97.59 2.68 M26.73 84.19 C51.65 54.34, 76.26 26.84, 97.59 2.68 M31.72 84.55 C51.27 65.03, 68.57 42.53, 103.23 2.28 M31.72 84.55 C47 66.86, 61.02 48.62, 103.23 2.28 M37.36 84.15 C56.69 60.56, 79.86 38.2, 108.22 2.64 M37.36 84.15 C62.12 56.13, 86.18 28.58, 108.22 2.64 M42.35 84.51 C63.08 59.28, 84.41 34.8, 113.86 2.25 M42.35 84.51 C59.01 62.77, 77.32 43.76, 113.86 2.25 M47.99 84.12 C74.93 54.87, 95.92 28.66, 118.85 2.61 M47.99 84.12 C75.32 51.74, 102.88 20.7, 118.85 2.61 M52.98 84.48 C79.65 53.47, 107.43 23.65, 124.49 2.22 M52.98 84.48 C76.89 57.88, 98.67 30.69, 124.49 2.22 M58.62 84.08 C82.68 57.77, 103.44 34.25, 129.48 2.58 M58.62 84.08 C77.64 62.4, 96.5 38.79, 129.48 2.58 M63.61 84.44 C79.69 64.58, 95.21 46.2, 135.12 2.18 M63.61 84.44 C85.9 57.66, 107.92 32.11, 135.12 2.18 M69.25 84.05 C90.13 62.27, 111.41 36.84, 140.11 2.54 M69.25 84.05 C93.04 57.53, 115.67 31.66, 140.11 2.54 M74.24 84.41 C102.23 54.9, 127.02 23.94, 145.75 2.15 M74.24 84.41 C99.01 56.04, 121.93 28.5, 145.75 2.15 M79.88 84.02 C97.17 66.17, 111.22 47.89, 150.74 2.51 M79.88 84.02 C102.91 56.45, 127.44 28.68, 150.74 2.51 M84.87 84.38 C107.69 60.86, 127.34 35.38, 156.38 2.11 M84.87 84.38 C99.69 67.92, 114.57 49.88, 156.38 2.11 M90.51 83.98 C109.58 63.73, 126.12 43.74, 161.37 2.47 M90.51 83.98 C110.4 60.71, 133.14 35.07, 161.37 2.47 M95.5 84.34 C111.13 66.49, 124.73 49.63, 167.01 2.08 M95.5 84.34 C122.83 52.87, 151.95 21.38, 167.01 2.08 M101.14 83.95 C121.93 59.64, 144.86 32, 172 2.44 M101.14 83.95 C118.22 64, 137.2 41.98, 172 2.44 M106.13 84.31 C131.11 58.86, 154.53 31.47, 177.64 2.04 M106.13 84.31 C123.9 64.73, 140.08 44.69, 177.64 2.04 M111.12 84.67 C139.39 55.59, 162.81 25.68, 182.63 2.4 M111.12 84.67 C125.65 65.97, 143.1 48.24, 182.63 2.4 M116.76 84.27 C142.82 56.47, 168.31 26.86, 188.27 2.01 M116.76 84.27 C142.31 53.47, 168.67 24.8, 188.27 2.01 M121.75 84.63 C148.95 56.54, 175.3 26.48, 193.26 2.37 M121.75 84.63 C142 61.46, 163.48 38.12, 193.26 2.37 M127.39 84.24 C142.49 68.43, 156.32 52.53, 198.9 1.97 M127.39 84.24 C143.49 64.46, 162.74 44.38, 198.9 1.97 M132.38 84.6 C150.39 64.33, 166.92 44.87, 203.89 2.33 M132.38 84.6 C152.55 59.74, 175.48 34.16, 203.89 2.33 M138.02 84.2 C159.24 57.22, 180.61 34.3, 208.87 2.69 M138.02 84.2 C154.65 63.46, 170.08 44.7, 208.87 2.69 M143.01 84.56 C170.08 52.06, 196.12 18.44, 214.52 2.3 M143.01 84.56 C171.17 53.15, 200.52 19.42, 214.52 2.3 M148.65 84.17 C170.51 60.07, 190.24 34.43, 219.5 2.66 M148.65 84.17 C176.57 53.07, 202.95 23.96, 219.5 2.66 M153.64 84.53 C177.63 55.44, 203.15 25.94, 225.15 2.27 M153.64 84.53 C173.24 61.48, 191.25 39.27, 225.15 2.27 M159.28 84.13 C180.74 60.39, 199.77 37.6, 230.13 2.63 M159.28 84.13 C183.79 56.19, 206.53 27.55, 230.13 2.63 M164.27 84.49 C187.95 61, 207.61 31.86, 236.43 1.48 M164.27 84.49 C183.42 59.9, 206.28 36.57, 236.43 1.48 M169.91 84.1 C186.99 66.89, 201.82 50.39, 241.42 1.84 M169.91 84.1 C193.12 59.11, 216.02 30.94, 241.42 1.84 M174.9 84.46 C192.49 65.62, 206.1 45.28, 245.75 2.95 M174.9 84.46 C203.4 53.6, 231.99 20.28, 245.75 2.95 M180.54 84.06 C203.73 55.9, 225.73 28.57, 249.43 4.82 M180.54 84.06 C202.98 57.37, 224.53 32.7, 249.43 4.82 M185.53 84.43 C207.04 59.22, 229.34 35.76, 253.1 6.69 M185.53 84.43 C211.94 52.79, 237.63 21.77, 253.1 6.69 M191.17 84.03 C207.77 64.49, 229.46 40.57, 254.81 10.82 M191.17 84.03 C209.6 63.17, 227.59 41.98, 254.81 10.82 M196.16 84.39 C215.44 61.66, 238.88 36.88, 256.51 14.96 M196.16 84.39 C211.38 66.54, 227.69 47.73, 256.51 14.96 M201.8 84 C213.34 70.78, 227.87 54.85, 258.88 18.34 M201.8 84 C222.73 60, 241.04 38.33, 258.88 18.34 M206.79 84.36 C220.42 67.41, 234.86 50, 258.62 24.73 M206.79 84.36 C220.43 69.43, 233.51 53.15, 258.62 24.73 M212.43 83.96 C227.57 68.52, 239.48 53.41, 259.01 30.38 M212.43 83.96 C230.63 62.43, 248.12 42.42, 259.01 30.38 M217.42 84.32 C232.36 67.9, 245.69 51.95, 258.75 36.77 M217.42 84.32 C234.49 64.94, 249.85 46.13, 258.75 36.77 M223.06 83.93 C237.04 69.85, 249.34 55.93, 258.49 43.17 M223.06 83.93 C234.9 70.77, 245.23 57.72, 258.49 43.17 M228.05 84.29 C240.17 71.95, 248.52 61.33, 258.88 48.82 M228.05 84.29 C239.22 71.23, 251.31 57.6, 258.88 48.82 M233.03 84.65 C238.86 75.09, 245.83 68.61, 258.62 55.21 M233.03 84.65 C240.18 74.73, 248.81 66.28, 258.62 55.21 M237.36 85.76 C240.61 78.49, 248.83 72.86, 256.39 63.88 M237.36 85.76 C241.47 80.35, 245.84 75.14, 256.39 63.88 M243.66 84.61 C247.23 81.17, 249.57 77.95, 255.47 71.03 M243.66 84.61 C246.56 81.91, 248.6 78.72, 255.47 71.03" stroke="#b2f2bb" stroke-width="0.5" fill="none"></path><path d="M21 0 M21 0 C88.01 -0.34, 152.23 1.33, 235 0 M21 0 C88.42 -0.01, 153.45 -0.44, 235 0 M235 0 C247.13 -0.88, 254.36 7.44, 256 21 M235 0 C250.38 -0.88, 257.34 5.22, 256 21 M256 21 C257.45 33.76, 257.77 48.58, 256 63 M256 21 C254.63 34.02, 256.12 47.12, 256 63 M256 63 C254.83 78.23, 250.6 84.63, 235 84 M256 63 C255.52 78.37, 247.8 83.36, 235 84 M235 84 C175.7 82.12, 112.52 84.92, 21 84 M235 84 C160.01 85.76, 83.89 84.89, 21 84 M21 84 C7.17 85.94, -1.4 75.77, 0 63 M21 84 C9.27 82.15, -0.59 77.7, 0 63 M0 63 C-0.26 53.62, 0.07 44.22, 0 21 M0 63 C-1.16 45.64, -0.9 29.71, 0 21 M0 21 C0.04 6.64, 7.04 1.48, 21 0 M0 21 C-1.94 4.98, 7.42 0.82, 21 0" stroke="#1e1e1e" stroke-width="1" fill="none"></path></g><g transform="translate(900.1705190866759 422.1451401098239) rotate(0 115.634765625 11.5)"><text x="115.634765625" y="0" font-family="Helvetica, Segoe UI Emoji" font-size="20px" fill="#1e1e1e" text-anchor="middle" style="white-space: pre;" direction="ltr" dominant-baseline="text-before-edge">resuming_on_new_thread</text></g><g transform="translate(473.2123565989772 154.62775815506114) rotate(0 218.427734375 46)"><text x="0" y="0" font-family="Helvetica, Segoe UI Emoji" font-size="20px" fill="#1e1e1e" text-anchor="start" style="white-space: pre;" direction="ltr" dominant-baseline="text-before-edge">由于 initial_suspend 返回的是 suspend_always，</text><text x="0" y="23" font-family="Helvetica, Segoe UI Emoji" font-size="20px" fill="#1e1e1e" text-anchor="start" style="white-space: pre;" direction="ltr" dominant-baseline="text-before-edge">直接开始执行代码，直到遇见：</text><text x="0" y="46" font-family="Helvetica, Segoe UI Emoji" font-size="20px" fill="#1e1e1e" text-anchor="start" style="white-space: pre;" direction="ltr" dominant-baseline="text-before-edge">auto awaitable = switch_to_new_thread(out);</text><text x="0" y="69" font-family="Helvetica, Segoe UI Emoji" font-size="20px" fill="#1e1e1e" text-anchor="start" style="white-space: pre;" direction="ltr" dominant-baseline="text-before-edge">co_await awaitable;</text></g><g transform="translate(1165.98009713075 418.2294883052711) rotate(0 80 11.5)"><text x="0" y="0" font-family="Helvetica, Segoe UI Emoji" font-size="20px" fill="#1e1e1e" text-anchor="start" style="white-space: pre;" direction="ltr" dominant-baseline="text-before-edge">暂停，从栈上撤下</text></g><g stroke-linecap="round" transform="translate(983.2510160639412 180.23635149421415) rotate(0 128 42)"><path d="M4.93 5.61 C4.93 5.61, 4.93 5.61, 4.93 5.61 M4.93 5.61 C4.93 5.61, 4.93 5.61, 4.93 5.61 M0.74 16.54 C3.48 10.51, 8.6 4.44, 13.2 2.2 M0.74 16.54 C3.99 12.81, 8.17 6.85, 13.2 2.2 M0.47 22.94 C5.01 15.95, 12.17 6.88, 18.84 1.81 M0.47 22.94 C7.49 15.8, 13.22 9.11, 18.84 1.81 M0.87 28.58 C9.82 20.52, 15.89 10.93, 23.83 2.17 M0.87 28.58 C6.19 20.61, 12.76 15.01, 23.83 2.17 M0.61 34.98 C10.14 23.17, 21.68 9.85, 28.82 2.53 M0.61 34.98 C10.78 22.98, 20.57 12.56, 28.82 2.53 M1 40.62 C9.1 30.94, 16.06 26.06, 34.46 2.13 M1 40.62 C9.58 30.09, 20 19.37, 34.46 2.13 M0.74 47.02 C11.66 31.88, 25.26 18.21, 39.45 2.49 M0.74 47.02 C13.29 32.26, 27.26 16.38, 39.45 2.49 M0.48 53.42 C18.95 34.98, 35.34 11.19, 45.09 2.1 M0.48 53.42 C16.43 35.14, 34.3 15.6, 45.09 2.1 M0.87 59.06 C16.41 42.28, 28.52 28.08, 50.08 2.46 M0.87 59.06 C12.59 46.67, 25.31 32.05, 50.08 2.46 M0.61 65.46 C15.92 46.55, 31.49 29.95, 55.72 2.06 M0.61 65.46 C17.26 46.68, 34.02 26.76, 55.72 2.06 M2.32 69.59 C15.9 54.37, 27.48 38.65, 60.71 2.42 M2.32 69.59 C21.51 48.91, 41.35 27.01, 60.71 2.42 M4.03 73.73 C20.56 54.35, 39.44 33.46, 66.35 2.03 M4.03 73.73 C23.87 52.49, 41.76 28.91, 66.35 2.03 M5.73 77.86 C28.42 54.1, 49.51 28.25, 71.34 2.39 M5.73 77.86 C22.63 58.85, 38.68 41.51, 71.34 2.39 M8.1 81.24 C28.16 55.58, 51.53 33.49, 76.98 1.99 M8.1 81.24 C30.66 53.3, 54.11 24.9, 76.98 1.99 M11.77 83.11 C38.25 55.21, 62.93 23.87, 81.97 2.35 M11.77 83.11 C38.9 54.53, 63.09 23.75, 81.97 2.35 M16.76 83.47 C36.79 60.81, 56.87 37.59, 87.61 1.96 M16.76 83.47 C34.06 63.56, 51.48 43.58, 87.61 1.96 M21.09 84.58 C49.5 55.02, 75.88 21.85, 92.6 2.32 M21.09 84.58 C38.12 63.73, 56.79 43.95, 92.6 2.32 M26.73 84.19 C48.45 61, 67.64 37.06, 97.59 2.68 M26.73 84.19 C53.95 52.18, 82.14 21.67, 97.59 2.68 M31.72 84.55 C59.05 57.23, 82.09 28.19, 103.23 2.28 M31.72 84.55 C58.04 53.47, 84.76 23.16, 103.23 2.28 M37.36 84.15 C67.35 50.51, 92.64 20, 108.22 2.64 M37.36 84.15 C53.8 67.31, 68.57 48.58, 108.22 2.64 M42.35 84.51 C70.38 50.26, 99.86 18.8, 113.86 2.25 M42.35 84.51 C57.98 67.17, 72.36 48.73, 113.86 2.25 M47.99 84.12 C75.24 49.71, 106.79 18.97, 118.85 2.61 M47.99 84.12 C69.22 57.12, 93.99 30.93, 118.85 2.61 M52.98 84.48 C75.82 57.31, 100.49 30.82, 124.49 2.22 M52.98 84.48 C78.89 55.09, 102.57 26.98, 124.49 2.22 M58.62 84.08 C80.36 56.27, 104.1 28.91, 129.48 2.58 M58.62 84.08 C82.66 56.29, 107.03 27.39, 129.48 2.58 M63.61 84.44 C84.71 58.29, 104.56 34.87, 135.12 2.18 M63.61 84.44 C90.15 53.72, 117.15 24.85, 135.12 2.18 M69.25 84.05 C92.52 57.97, 113.68 32.06, 140.11 2.54 M69.25 84.05 C90.16 59.72, 110.5 36.44, 140.11 2.54 M74.24 84.41 C100.72 52.4, 129.9 22.32, 145.75 2.15 M74.24 84.41 C100.34 55.27, 126.65 26, 145.75 2.15 M79.88 84.02 C102.32 55.85, 125.7 29.54, 150.74 2.51 M79.88 84.02 C94.45 66.63, 109.28 50.9, 150.74 2.51 M84.87 84.38 C106.29 58.37, 130.54 34.14, 156.38 2.11 M84.87 84.38 C99.69 67.24, 116.77 47.92, 156.38 2.11 M90.51 83.98 C109.24 65.37, 126.57 42.4, 161.37 2.47 M90.51 83.98 C112.91 58.14, 135.4 31.44, 161.37 2.47 M95.5 84.34 C113.39 65.3, 133.49 42.25, 167.01 2.08 M95.5 84.34 C121.62 55.99, 146.03 25.97, 167.01 2.08 M101.14 83.95 C128.94 52.9, 153.64 23.35, 172 2.44 M101.14 83.95 C119.85 60.9, 140.64 37.14, 172 2.44 M106.13 84.31 C132.45 52.9, 162.27 22.39, 177.64 2.04 M106.13 84.31 C131.35 53.96, 157.36 23.48, 177.64 2.04 M111.12 84.67 C132.62 56.91, 156.88 31.34, 182.63 2.4 M111.12 84.67 C135.42 57.69, 157.64 30.28, 182.63 2.4 M116.76 84.27 C139.2 60.09, 157.65 36.3, 188.27 2.01 M116.76 84.27 C142.23 55.29, 167.41 26.52, 188.27 2.01 M121.75 84.63 C147.95 58.09, 171.04 28.72, 193.26 2.37 M121.75 84.63 C143.24 59.8, 164.9 35.08, 193.26 2.37 M127.39 84.24 C155.37 52.03, 181.67 19.35, 198.9 1.97 M127.39 84.24 C144.34 64.57, 163.1 44.1, 198.9 1.97 M132.38 84.6 C147.24 68.71, 163.03 50.91, 203.89 2.33 M132.38 84.6 C151.21 62.3, 170.32 40.62, 203.89 2.33 M138.02 84.2 C159.86 56.34, 182.96 32.91, 208.87 2.69 M138.02 84.2 C156.11 62.73, 174.8 43.28, 208.87 2.69 M143.01 84.56 C162.77 62.69, 184.85 39.26, 214.52 2.3 M143.01 84.56 C162.78 60.25, 184.54 36.25, 214.52 2.3 M148.65 84.17 C172.81 54.91, 196.97 27.73, 219.5 2.66 M148.65 84.17 C162.21 67.87, 176.92 50.61, 219.5 2.66 M153.64 84.53 C173.61 63.23, 195.65 39.29, 225.15 2.27 M153.64 84.53 C168.28 68.03, 183.08 49.28, 225.15 2.27 M159.28 84.13 C181.18 57.9, 203.67 33.86, 230.13 2.63 M159.28 84.13 C175.58 66.88, 190.79 47.67, 230.13 2.63 M164.27 84.49 C188.97 57.29, 212.04 32.51, 236.43 1.48 M164.27 84.49 C187.97 58.55, 211.57 30.44, 236.43 1.48 M169.91 84.1 C195.59 55.01, 219.31 29.25, 241.42 1.84 M169.91 84.1 C187.28 63.25, 205.84 44.58, 241.42 1.84 M174.9 84.46 C194.11 63.93, 210.65 43.61, 245.75 2.95 M174.9 84.46 C194.27 63.53, 214.16 39.98, 245.75 2.95 M180.54 84.06 C204.54 55.83, 229.19 31.32, 249.43 4.82 M180.54 84.06 C200.68 59.39, 223.51 33.87, 249.43 4.82 M185.53 84.43 C205.6 60.04, 227.11 34.88, 253.1 6.69 M185.53 84.43 C210.14 56.98, 234.39 28.5, 253.1 6.69 M191.17 84.03 C207.65 64.8, 225.88 47.12, 254.81 10.82 M191.17 84.03 C207.05 65.01, 224.3 45.97, 254.81 10.82 M196.16 84.39 C215.09 59.99, 238.37 37.04, 256.51 14.96 M196.16 84.39 C211.93 65.48, 227.49 47.68, 256.51 14.96 M201.8 84 C215.03 67.21, 228.82 54.38, 258.88 18.34 M201.8 84 C215.61 68.92, 229.67 52.22, 258.88 18.34 M206.79 84.36 C222.27 68.99, 236.68 49.65, 258.62 24.73 M206.79 84.36 C220.87 68.74, 234.54 52.49, 258.62 24.73 M212.43 83.96 C223.42 68.43, 238.06 54.67, 259.01 30.38 M212.43 83.96 C232.09 62.04, 250.24 42.13, 259.01 30.38 M217.42 84.32 C228.81 69.6, 241.79 55.42, 258.75 36.77 M217.42 84.32 C228.26 72.47, 237.88 59.27, 258.75 36.77 M223.06 83.93 C236.36 69.79, 245 57.01, 258.49 43.17 M223.06 83.93 C236.46 67.92, 251.08 51.15, 258.49 43.17 M228.05 84.29 C240.21 70.45, 248.42 61.49, 258.88 48.82 M228.05 84.29 C238.84 72.67, 248.4 61.51, 258.88 48.82 M233.03 84.65 C239.35 75.92, 245.64 71.41, 258.62 55.21 M233.03 84.65 C240.91 76.11, 247.73 66.72, 258.62 55.21 M237.36 85.76 C243.84 78.88, 245.88 77.03, 256.39 63.88 M237.36 85.76 C245.27 76.39, 253.27 69.04, 256.39 63.88 M243.66 84.61 C246.86 81.51, 251.78 77.48, 255.47 71.03 M243.66 84.61 C246.49 81.41, 250.64 77.9, 255.47 71.03" stroke="#b2f2bb" stroke-width="0.5" fill="none"></path><path d="M21 0 M21 0 C87.93 0.86, 156.21 -0.19, 235 0 M21 0 C99.25 2.21, 176.27 1.02, 235 0 M235 0 C248.37 -0.78, 256.52 8.64, 256 21 M235 0 C249.69 -2.28, 257.58 5.94, 256 21 M256 21 C254.66 31.19, 256.62 39.39, 256 63 M256 21 C256.44 32.26, 254.88 45.33, 256 63 M256 63 C256.68 75.1, 247.84 84.49, 235 84 M256 63 C257.38 76.15, 248.59 82.01, 235 84 M235 84 C163.11 84.14, 94.78 83.18, 21 84 M235 84 C164.93 82.26, 95.89 81.89, 21 84 M21 84 C6.72 83.19, -0.58 76.87, 0 63 M21 84 C7.09 82.05, 1.52 77.91, 0 63 M0 63 C1.1 48.34, -1.25 35.62, 0 21 M0 63 C-1.08 46.32, -1.31 30.15, 0 21 M0 21 C-1.42 6.22, 8.13 -0.77, 21 0 M0 21 C1.57 9.03, 5.17 -1.27, 21 0" stroke="#1e1e1e" stroke-width="1" fill="none"></path></g><g transform="translate(1069.0000395014413 210.73635149421415) rotate(0 42.2509765625 11.5)"><text x="42.2509765625" y="0" font-family="Helvetica, Segoe UI Emoji" font-size="20px" fill="#1e1e1e" text-anchor="middle" style="white-space: pre;" direction="ltr" dominant-baseline="text-before-edge">awaitable</text></g><g transform="translate(182.38664365982333 129.7975948240699) rotate(0 10.0107421875 20.69999999999999)"><text x="0" y="0" font-family="Helvetica, Segoe UI Emoji" font-size="36px" fill="#1e1e1e" text-anchor="start" style="white-space: pre;" direction="ltr" dominant-baseline="text-before-edge">1</text></g><g transform="translate(1040.8571841773564 10) rotate(0 10.0107421875 20.69999999999999)"><text x="0" y="0" font-family="Helvetica, Segoe UI Emoji" font-size="36px" fill="#1e1e1e" text-anchor="start" style="white-space: pre;" direction="ltr" dominant-baseline="text-before-edge">2</text></g><g stroke-linecap="round" transform="translate(95.81474257438458 624.1659124292628) rotate(0 127 42)"><path d="M21 0 M21 0 C95.29 0.29, 167.97 -1.65, 233 0 M21 0 C100.7 -0.07, 180.79 -0.25, 233 0 M233 0 C248.79 -0.12, 254.86 7.52, 254 21 M233 0 C246.73 1.69, 251.98 5.77, 254 21 M254 21 C255.74 35.99, 252.92 51.53, 254 63 M254 21 C254.07 38.01, 252.71 53.71, 254 63 M254 63 C254.27 78.99, 247.64 85.31, 233 84 M254 63 C252.8 75.1, 245.21 82.91, 233 84 M233 84 C157.04 82.92, 83.8 83.43, 21 84 M233 84 C156.98 83.47, 80.61 83.51, 21 84 M21 84 C7.35 83.19, -0.65 75.66, 0 63 M21 84 C8.13 82.96, 1.88 78.71, 0 63 M0 63 C-0.38 52.86, 1.75 41.29, 0 21 M0 63 C0.31 48.48, 0 36.04, 0 21 M0 21 C0.57 8.09, 5.62 0.55, 21 0 M0 21 C-0.99 5.25, 6.26 -2.02, 21 0" stroke="#1e1e1e" stroke-width="1" fill="none"></path></g><g transform="translate(201.13993788688458 654.665912429263) rotate(0 21.6748046875 11.5)"><text x="21.6748046875" y="0" font-family="Helvetica, Segoe UI Emoji" font-size="20px" fill="#1e1e1e" text-anchor="middle" style="white-space: pre;" direction="ltr" dominant-baseline="text-before-edge">main</text></g><g stroke-linecap="round" transform="translate(10 949.2757649564398) rotate(0 128 42)"><path d="M4.93 5.61 C4.93 5.61, 4.93 5.61, 4.93 5.61 M4.93 5.61 C4.93 5.61, 4.93 5.61, 4.93 5.61 M0.74 16.54 C3.21 14.16, 6.94 8.84, 13.2 2.2 M0.74 16.54 C4.84 11.73, 9.88 4.31, 13.2 2.2 M0.47 22.94 C7.2 16.12, 14.92 9.22, 18.84 1.81 M0.47 22.94 C6.52 14.89, 14.54 7.29, 18.84 1.81 M0.87 28.58 C9.12 18.72, 17.46 10.32, 23.83 2.17 M0.87 28.58 C6.25 23.11, 11.68 15.68, 23.83 2.17 M0.61 34.98 C7.46 27.8, 17.4 16.96, 28.82 2.53 M0.61 34.98 C7.68 28.16, 14.29 20.02, 28.82 2.53 M1 40.62 C7.11 31.24, 17.19 23.63, 34.46 2.13 M1 40.62 C12.71 26.12, 24.68 12.35, 34.46 2.13 M0.74 47.02 C13 33.45, 22.13 23.41, 39.45 2.49 M0.74 47.02 C13.35 30.61, 27.08 15.24, 39.45 2.49 M0.48 53.42 C12.12 42.07, 19.46 30.93, 45.09 2.1 M0.48 53.42 C14.22 39.08, 26.82 22.77, 45.09 2.1 M0.87 59.06 C13.65 42.87, 27.69 29.11, 50.08 2.46 M0.87 59.06 C20.7 36.39, 40.58 14.12, 50.08 2.46 M0.61 65.46 C13.76 50.31, 29.39 31.24, 55.72 2.06 M0.61 65.46 C21.2 41.9, 41.41 18.5, 55.72 2.06 M2.32 69.59 C19.06 49.02, 37.27 28.43, 60.71 2.42 M2.32 69.59 C15.87 53.93, 29.25 38.85, 60.71 2.42 M4.03 73.73 C28.67 43.97, 55.11 15.5, 66.35 2.03 M4.03 73.73 C17.41 55.63, 33 39.18, 66.35 2.03 M5.73 77.86 C21.67 57.54, 39.5 39.29, 71.34 2.39 M5.73 77.86 C29.17 52.23, 52.38 25.67, 71.34 2.39 M8.1 81.24 C22.93 62.63, 38.2 47.15, 76.98 1.99 M8.1 81.24 C31.43 53.99, 54.93 28.08, 76.98 1.99 M11.77 83.11 C32.36 57.53, 53.74 35.84, 81.97 2.35 M11.77 83.11 C25.81 65.84, 40.8 48.83, 81.97 2.35 M16.76 83.47 C35.53 64.25, 54.31 41.79, 87.61 1.96 M16.76 83.47 C31.95 68.1, 45 52.15, 87.61 1.96 M21.09 84.58 C36.33 65.86, 54.22 47.2, 92.6 2.32 M21.09 84.58 C44.79 57.88, 70 30.21, 92.6 2.32 M26.73 84.19 C47.7 61.94, 69.6 36.65, 97.59 2.68 M26.73 84.19 C54.52 52.29, 82.89 20.09, 97.59 2.68 M31.72 84.55 C46.37 69.87, 62.35 49.95, 103.23 2.28 M31.72 84.55 C57.25 54.52, 84.22 22.64, 103.23 2.28 M37.36 84.15 C62.27 59.62, 83.23 30.79, 108.22 2.64 M37.36 84.15 C63.12 54.56, 89.19 23.35, 108.22 2.64 M42.35 84.51 C66.01 59.62, 88.77 32.64, 113.86 2.25 M42.35 84.51 C59.55 63.51, 79.69 43.18, 113.86 2.25 M47.99 84.12 C76.15 52.63, 101.99 20.46, 118.85 2.61 M47.99 84.12 C74.83 53.07, 103.44 21.21, 118.85 2.61 M52.98 84.48 C75.35 59.47, 95.02 37.06, 124.49 2.22 M52.98 84.48 C71.26 61.9, 90.42 41.83, 124.49 2.22 M58.62 84.08 C78.35 60.27, 101.51 35.59, 129.48 2.58 M58.62 84.08 C73 66.79, 89.87 48.65, 129.48 2.58 M63.61 84.44 C89.82 54.8, 119.31 21.96, 135.12 2.18 M63.61 84.44 C86.41 59.63, 107.72 32.41, 135.12 2.18 M69.25 84.05 C90.47 58.75, 112.31 31.68, 140.11 2.54 M69.25 84.05 C85.81 66.06, 101.88 47.22, 140.11 2.54 M74.24 84.41 C101.24 54.34, 130.95 19.95, 145.75 2.15 M74.24 84.41 C95.17 59.21, 117.26 33.5, 145.75 2.15 M79.88 84.02 C102.53 58.43, 127.88 28.43, 150.74 2.51 M79.88 84.02 C101.43 58.57, 121.26 34.66, 150.74 2.51 M84.87 84.38 C107.42 57.89, 133.97 27.54, 156.38 2.11 M84.87 84.38 C111.45 53.25, 138.19 23.35, 156.38 2.11 M90.51 83.98 C107.14 64.89, 122.32 46, 161.37 2.47 M90.51 83.98 C112.36 59.08, 131.96 35.98, 161.37 2.47 M95.5 84.34 C121.46 52.71, 153.32 17.81, 167.01 2.08 M95.5 84.34 C111.03 66.94, 127.17 49.94, 167.01 2.08 M101.14 83.95 C123.63 54.99, 151.66 24.64, 172 2.44 M101.14 83.95 C115.58 65.4, 131.35 49.1, 172 2.44 M106.13 84.31 C129.21 57.31, 152.53 29.34, 177.64 2.04 M106.13 84.31 C132.34 53.7, 158.14 23.63, 177.64 2.04 M111.12 84.67 C126.41 65.4, 144.45 46.74, 182.63 2.4 M111.12 84.67 C127.73 65.25, 146.59 45.58, 182.63 2.4 M116.76 84.27 C131.52 67.47, 146.06 50.65, 188.27 2.01 M116.76 84.27 C142.08 55.12, 166.05 25.48, 188.27 2.01 M121.75 84.63 C135.15 67.18, 149.66 49.82, 193.26 2.37 M121.75 84.63 C141.47 61.68, 160.99 39.33, 193.26 2.37 M127.39 84.24 C149.83 57.21, 177.69 25.31, 198.9 1.97 M127.39 84.24 C149.64 57.5, 172.86 31.87, 198.9 1.97 M132.38 84.6 C153.68 59.41, 174.54 36.65, 203.89 2.33 M132.38 84.6 C147.82 68.66, 162.44 50.94, 203.89 2.33 M138.02 84.2 C164.12 52.34, 193.88 19.94, 208.87 2.69 M138.02 84.2 C164.29 51.92, 192.42 20.5, 208.87 2.69 M143.01 84.56 C160.63 62.67, 177.56 41.68, 214.52 2.3 M143.01 84.56 C161.2 62.61, 179.36 41, 214.52 2.3 M148.65 84.17 C172.15 58.1, 198.73 28.12, 219.5 2.66 M148.65 84.17 C170.91 58.31, 193.81 33.9, 219.5 2.66 M153.64 84.53 C179.59 58.16, 204.72 28.26, 225.15 2.27 M153.64 84.53 C168.45 68.27, 183.83 51.45, 225.15 2.27 M159.28 84.13 C176.86 65.38, 192.08 47.44, 230.13 2.63 M159.28 84.13 C175.05 65.53, 190.76 47.8, 230.13 2.63 M164.27 84.49 C192.81 53.51, 219.23 24.26, 236.43 1.48 M164.27 84.49 C192.42 52.37, 219.79 20.9, 236.43 1.48 M169.91 84.1 C184.16 68.37, 197.67 51.46, 241.42 1.84 M169.91 84.1 C192.56 58.51, 215.15 33.61, 241.42 1.84 M174.9 84.46 C191.38 65.73, 210.02 45.44, 245.75 2.95 M174.9 84.46 C196.93 58.83, 219.52 32.51, 245.75 2.95 M180.54 84.06 C207.64 55.47, 233.05 22.91, 249.43 4.82 M180.54 84.06 C199.59 61.79, 219.68 38.68, 249.43 4.82 M185.53 84.43 C212.2 54.2, 238.18 25.4, 253.1 6.69 M185.53 84.43 C198.47 68.77, 213.45 53.37, 253.1 6.69 M191.17 84.03 C210.2 61.98, 230.57 39.79, 254.81 10.82 M191.17 84.03 C213.47 58.03, 236.91 30.9, 254.81 10.82 M196.16 84.39 C217.83 60.55, 241.22 35.14, 256.51 14.96 M196.16 84.39 C213.16 64.12, 231.21 44.11, 256.51 14.96 M201.8 84 C216.22 71.48, 224.97 55.74, 258.88 18.34 M201.8 84 C215.12 68.22, 229.52 52.24, 258.88 18.34 M206.79 84.36 C219.11 69.7, 233.64 57.72, 258.62 24.73 M206.79 84.36 C222.96 67.12, 237.63 49.07, 258.62 24.73 M212.43 83.96 C230.03 62.09, 245.86 44.89, 259.01 30.38 M212.43 83.96 C230.13 64.32, 246.71 46.06, 259.01 30.38 M217.42 84.32 C233.06 66.69, 249.17 46.01, 258.75 36.77 M217.42 84.32 C232.2 67.23, 246.4 49.65, 258.75 36.77 M223.06 83.93 C238.2 69, 251.25 53.54, 258.49 43.17 M223.06 83.93 C231.33 74.7, 240.04 63.7, 258.49 43.17 M228.05 84.29 C238.68 69.15, 252.25 58.8, 258.88 48.82 M228.05 84.29 C237.64 72.39, 249.48 61.9, 258.88 48.82 M233.03 84.65 C239.4 78.56, 247.95 70.26, 258.62 55.21 M233.03 84.65 C241.9 74.16, 248.87 65.44, 258.62 55.21 M237.36 85.76 C244.4 76.78, 253.58 67.38, 256.39 63.88 M237.36 85.76 C242.69 80.33, 246.96 74.68, 256.39 63.88 M243.66 84.61 C245.64 79.02, 250.82 74.45, 255.47 71.03 M243.66 84.61 C247.06 80.4, 251.26 76.08, 255.47 71.03" stroke="#b2f2bb" stroke-width="0.5" fill="none"></path><path d="M21 0 M21 0 C64.41 -1.12, 109.05 -1.42, 235 0 M21 0 C76.65 1.69, 134.19 0.89, 235 0 M235 0 C249.39 0.94, 254.38 5.46, 256 21 M235 0 C250.41 1.1, 258.04 6.84, 256 21 M256 21 C257.5 32.68, 255.15 43.06, 256 63 M256 21 C256.55 34.45, 255.16 49.9, 256 63 M256 63 C256.88 78.87, 250.98 82.63, 235 84 M256 63 C256.95 79.02, 249.8 84.57, 235 84 M235 84 C186.66 82.64, 142.83 81.72, 21 84 M235 84 C179.99 82.27, 125.9 83.23, 21 84 M21 84 C7.61 82.09, 0.32 77.96, 0 63 M21 84 C6.5 84.14, -0.33 79.23, 0 63 M0 63 C1.02 48.03, 0.79 32.86, 0 21 M0 63 C-0.55 46.07, -0.76 30.38, 0 21 M0 21 C-0.73 7.57, 6.63 -1.64, 21 0 M0 21 C0.89 8.53, 6.82 -1.98, 21 0" stroke="#1e1e1e" stroke-width="1" fill="none"></path></g><g transform="translate(22.365234375 979.7757649564398) rotate(0 115.634765625 11.5)"><text x="115.634765625" y="0" font-family="Helvetica, Segoe UI Emoji" font-size="20px" fill="#1e1e1e" text-anchor="middle" style="white-space: pre;" direction="ltr" dominant-baseline="text-before-edge">resuming_on_new_thread</text></g><g stroke-linecap="round" transform="translate(37.935666877990684 771.8503430590761) rotate(0 128 42)"><path d="M4.93 5.61 C4.93 5.61, 4.93 5.61, 4.93 5.61 M4.93 5.61 C4.93 5.61, 4.93 5.61, 4.93 5.61 M0.74 16.54 C3.79 10.12, 10.3 5.68, 13.2 2.2 M0.74 16.54 C2.33 13.79, 5.89 11.53, 13.2 2.2 M0.47 22.94 C4.79 14.46, 11.59 10.05, 18.84 1.81 M0.47 22.94 C4.31 17.71, 9.45 12.49, 18.84 1.81 M0.87 28.58 C8.47 22.07, 14.35 15.58, 23.83 2.17 M0.87 28.58 C7.4 21.43, 13.69 15.77, 23.83 2.17 M0.61 34.98 C7.89 27.23, 17.75 18.27, 28.82 2.53 M0.61 34.98 C10.02 23.71, 18.89 14.38, 28.82 2.53 M1 40.62 C12.33 27.36, 21.24 14.94, 34.46 2.13 M1 40.62 C7.82 33.47, 14.42 24.69, 34.46 2.13 M0.74 47.02 C11.81 31.88, 21.85 19, 39.45 2.49 M0.74 47.02 C9.37 37.76, 18.38 26.44, 39.45 2.49 M0.48 53.42 C17.07 37.1, 32.76 18.84, 45.09 2.1 M0.48 53.42 C10.93 40.79, 21.42 28.94, 45.09 2.1 M0.87 59.06 C13.46 42.51, 28.51 26.34, 50.08 2.46 M0.87 59.06 C14.61 43.39, 28.42 28.79, 50.08 2.46 M0.61 65.46 C9.63 52.76, 21.76 39.23, 55.72 2.06 M0.61 65.46 C16.04 47.18, 31.11 29.81, 55.72 2.06 M2.32 69.59 C20.79 47.69, 39.58 25.89, 60.71 2.42 M2.32 69.59 C19.29 49.53, 35.84 30.4, 60.71 2.42 M4.03 73.73 C20.64 53.91, 33.44 37.89, 66.35 2.03 M4.03 73.73 C22.76 51.37, 41.81 29.89, 66.35 2.03 M5.73 77.86 C24.3 55.47, 46.07 33.11, 71.34 2.39 M5.73 77.86 C27.22 53.17, 48.17 28.78, 71.34 2.39 M8.1 81.24 C29.5 56.88, 48.84 33.61, 76.98 1.99 M8.1 81.24 C25.96 59.34, 44.55 37.96, 76.98 1.99 M11.77 83.11 C35.75 54.78, 59.43 27.61, 81.97 2.35 M11.77 83.11 C32.76 60.81, 53.09 38.25, 81.97 2.35 M16.76 83.47 C34.9 62.43, 56.65 37.99, 87.61 1.96 M16.76 83.47 C43.09 52.22, 70.02 22.45, 87.61 1.96 M21.09 84.58 C49.32 51.23, 78.55 21.81, 92.6 2.32 M21.09 84.58 C43.65 58.27, 67.31 32.69, 92.6 2.32 M26.73 84.19 C49.79 58.29, 72.9 32.82, 97.59 2.68 M26.73 84.19 C51.96 55.8, 78.11 27.95, 97.59 2.68 M31.72 84.55 C47.1 65.52, 63.14 48.85, 103.23 2.28 M31.72 84.55 C49.54 64.33, 69.36 41.98, 103.23 2.28 M37.36 84.15 C55.11 61.28, 76.08 38.56, 108.22 2.64 M37.36 84.15 C52.09 65.95, 69.48 47.4, 108.22 2.64 M42.35 84.51 C70.19 49.8, 99.06 20.72, 113.86 2.25 M42.35 84.51 C66.84 55.8, 92.55 25.69, 113.86 2.25 M47.99 84.12 C64.44 62.45, 84.4 43.47, 118.85 2.61 M47.99 84.12 C72.2 57.01, 96.11 28.45, 118.85 2.61 M52.98 84.48 C77.75 56.66, 98.92 30.49, 124.49 2.22 M52.98 84.48 C78.58 54.35, 104.51 25.96, 124.49 2.22 M58.62 84.08 C74.4 64.19, 91.4 48.81, 129.48 2.58 M58.62 84.08 C81.51 57.31, 105.15 31.94, 129.48 2.58 M63.61 84.44 C80.13 63.77, 101.72 39.75, 135.12 2.18 M63.61 84.44 C78.75 64.93, 95.96 45.86, 135.12 2.18 M69.25 84.05 C86.32 65.58, 104.82 45.71, 140.11 2.54 M69.25 84.05 C93.15 55.86, 118.49 28.74, 140.11 2.54 M74.24 84.41 C87.71 65.67, 103.07 48.85, 145.75 2.15 M74.24 84.41 C89.87 66.33, 105.47 49.74, 145.75 2.15 M79.88 84.02 C95.91 68.38, 107.08 49.63, 150.74 2.51 M79.88 84.02 C95.7 64.67, 112.48 47.29, 150.74 2.51 M84.87 84.38 C103.9 62.38, 121.65 40.83, 156.38 2.11 M84.87 84.38 C112.11 52.09, 140.75 19.25, 156.38 2.11 M90.51 83.98 C114.65 58.73, 136.06 29.29, 161.37 2.47 M90.51 83.98 C114.76 54.43, 139.28 28.06, 161.37 2.47 M95.5 84.34 C115.45 61.36, 136.04 40.07, 167.01 2.08 M95.5 84.34 C118.4 56.86, 140.37 32.4, 167.01 2.08 M101.14 83.95 C119.18 62.06, 134.7 42.97, 172 2.44 M101.14 83.95 C123.91 56.82, 147.76 29.74, 172 2.44 M106.13 84.31 C121.18 67.55, 134.93 49.63, 177.64 2.04 M106.13 84.31 C133.38 53.18, 159.68 23.42, 177.64 2.04 M111.12 84.67 C132.14 57.51, 156.22 34.7, 182.63 2.4 M111.12 84.67 C139.75 53.03, 166.81 21.5, 182.63 2.4 M116.76 84.27 C139.12 58.84, 161.69 30.08, 188.27 2.01 M116.76 84.27 C134.88 64.28, 150.95 44.91, 188.27 2.01 M121.75 84.63 C141.95 60.53, 162.89 35.8, 193.26 2.37 M121.75 84.63 C145.44 55.5, 170.2 29.38, 193.26 2.37 M127.39 84.24 C143.79 66.96, 157 50.83, 198.9 1.97 M127.39 84.24 C155.15 52.74, 181.95 21.12, 198.9 1.97 M132.38 84.6 C151.47 61.91, 175.78 37.07, 203.89 2.33 M132.38 84.6 C160.5 52.14, 187.52 21.38, 203.89 2.33 M138.02 84.2 C153.15 66.41, 164.95 51.88, 208.87 2.69 M138.02 84.2 C153.09 66.34, 168.11 48.27, 208.87 2.69 M143.01 84.56 C159.79 66.69, 172.17 49.52, 214.52 2.3 M143.01 84.56 C156.14 67.14, 172.35 51.45, 214.52 2.3 M148.65 84.17 C170.82 57.69, 193.03 32.95, 219.5 2.66 M148.65 84.17 C170.43 59.4, 193.71 34.11, 219.5 2.66 M153.64 84.53 C173.24 61.18, 196.49 38.11, 225.15 2.27 M153.64 84.53 C181.2 54.36, 207.64 23.15, 225.15 2.27 M159.28 84.13 C185.02 55.57, 209.69 26.14, 230.13 2.63 M159.28 84.13 C185.35 53.78, 212.66 22.37, 230.13 2.63 M164.27 84.49 C190.19 52.39, 219.32 18.41, 236.43 1.48 M164.27 84.49 C190.74 53.58, 218.47 22.41, 236.43 1.48 M169.91 84.1 C193.12 57.27, 217.08 30.58, 241.42 1.84 M169.91 84.1 C192.59 57.56, 215.95 32.34, 241.42 1.84 M174.9 84.46 C193.79 61.48, 214.09 39.09, 245.75 2.95 M174.9 84.46 C187.74 68.14, 203.84 50.84, 245.75 2.95 M180.54 84.06 C200.63 59.05, 222.91 35.52, 249.43 4.82 M180.54 84.06 C201.59 58.13, 224.81 31.93, 249.43 4.82 M185.53 84.43 C209.59 55.07, 234.86 29.28, 253.1 6.69 M185.53 84.43 C208.78 56.66, 233.01 29.76, 253.1 6.69 M191.17 84.03 C213.72 58.91, 234.76 35.8, 254.81 10.82 M191.17 84.03 C205.73 67.7, 220.16 52.08, 254.81 10.82 M196.16 84.39 C215.53 59.82, 236.21 37.38, 256.51 14.96 M196.16 84.39 C211.49 69.16, 226.14 51.05, 256.51 14.96 M201.8 84 C218.79 62.15, 238.17 42.13, 258.88 18.34 M201.8 84 C219.86 62.86, 238.92 42.57, 258.88 18.34 M206.79 84.36 C227.13 64.47, 245.96 41.57, 258.62 24.73 M206.79 84.36 C223.4 63.98, 240.54 42.88, 258.62 24.73 M212.43 83.96 C227.37 65.82, 244.49 45.96, 259.01 30.38 M212.43 83.96 C228.02 64.81, 245.07 45.91, 259.01 30.38 M217.42 84.32 C228.81 71.07, 240.55 56.2, 258.75 36.77 M217.42 84.32 C230.18 70.78, 242.12 56.33, 258.75 36.77 M223.06 83.93 C236.87 67.01, 252.33 51.1, 258.49 43.17 M223.06 83.93 C233.72 70.45, 244.58 58.31, 258.49 43.17 M228.05 84.29 C237.48 70.03, 249.75 60.22, 258.88 48.82 M228.05 84.29 C241.36 70, 253.6 56.86, 258.88 48.82 M233.03 84.65 C242.94 75.49, 249.08 62.73, 258.62 55.21 M233.03 84.65 C238.84 76.53, 246.32 69.46, 258.62 55.21 M237.36 85.76 C242.21 82.15, 246.05 76.36, 256.39 63.88 M237.36 85.76 C242.96 78.42, 247.59 72.91, 256.39 63.88 M243.66 84.61 C244.96 80.58, 249.07 78.29, 255.47 71.03 M243.66 84.61 C248.12 79.96, 251.51 75.97, 255.47 71.03" stroke="#b2f2bb" stroke-width="0.5" fill="none"></path><path d="M21 0 M21 0 C76.34 -0.08, 134.92 2.54, 235 0 M21 0 C77.35 -1.55, 135.66 -0.46, 235 0 M235 0 C250.78 -0.14, 255.37 7.77, 256 21 M235 0 C250.12 1.54, 256.47 5.84, 256 21 M256 21 C255.49 33.95, 254.46 42.77, 256 63 M256 21 C257.17 34.11, 256.6 49.46, 256 63 M256 63 C256.69 77.49, 247.37 84.22, 235 84 M256 63 C255.28 74.98, 247.98 85.9, 235 84 M235 84 C190.2 81.49, 147.31 81.75, 21 84 M235 84 C155.93 82.63, 76.38 82.26, 21 84 M21 84 C6.71 85.94, 0.71 77.86, 0 63 M21 84 C5.03 85.38, -1.01 78.12, 0 63 M0 63 C-0.17 53.93, -1.92 44.98, 0 21 M0 63 C-0.03 50.97, 0.54 41.23, 0 21 M0 21 C-0.16 5.27, 6.62 0.02, 21 0 M0 21 C-0.32 6.07, 9.1 0.07, 21 0" stroke="#1e1e1e" stroke-width="1" fill="none"></path></g><g transform="translate(123.68469031549068 802.3503430590761) rotate(0 42.2509765625 11.5)"><text x="42.2509765625" y="0" font-family="Helvetica, Segoe UI Emoji" font-size="20px" fill="#1e1e1e" text-anchor="middle" style="white-space: pre;" direction="ltr" dominant-baseline="text-before-edge">awaitable</text></g><g transform="translate(167.4358730437383 539.1349220152522) rotate(0 10.0107421875 20.69999999999999)"><text x="0" y="0" font-family="Helvetica, Segoe UI Emoji" font-size="36px" fill="#1e1e1e" text-anchor="start" style="white-space: pre;" direction="ltr" dominant-baseline="text-before-edge">3</text></g><g transform="translate(324.43855977593387 804.5633844003935) rotate(0 186.15234375 23)"><text x="0" y="0" font-family="Helvetica, Segoe UI Emoji" font-size="20px" fill="#1e1e1e" text-anchor="start" style="white-space: pre;" direction="ltr" dominant-baseline="text-before-edge">因为 await_ready() 返回 false，</text><text x="0" y="23" font-family="Helvetica, Segoe UI Emoji" font-size="20px" fill="#1e1e1e" text-anchor="start" style="white-space: pre;" direction="ltr" dominant-baseline="text-before-edge">所以运行 await_suspend()，然后主动暂停</text></g><g stroke-linecap="round" transform="translate(495.8900054530071 624.4685511609396) rotate(0 127 42)"><path d="M21 0 M21 0 C104.1 3.09, 186.79 1.61, 233 0 M21 0 C71.53 -1.71, 121.63 -1.37, 233 0 M233 0 C245.78 1.89, 254.16 6.05, 254 21 M233 0 C246.45 1.61, 251.91 7.61, 254 21 M254 21 C254.76 35.9, 255.18 49.4, 254 63 M254 21 C254.55 30.4, 254.01 41.9, 254 63 M254 63 C254.57 77.35, 246.4 83.67, 233 84 M254 63 C253.53 79.27, 248.33 84.46, 233 84 M233 84 C185.93 84.07, 140.26 84.33, 21 84 M233 84 C184.22 84.39, 135.67 84.21, 21 84 M21 84 C8.7 82.24, -1.35 78.07, 0 63 M21 84 C6.99 82.21, 0.09 77.44, 0 63 M0 63 C0.34 48.52, 0.29 33.69, 0 21 M0 63 C-0.32 53.7, 1.03 45.55, 0 21 M0 21 C1.92 5.37, 5.44 1.74, 21 0 M0 21 C0.69 6.33, 5.57 -0.46, 21 0" stroke="#1e1e1e" stroke-width="1" fill="none"></path></g><g transform="translate(570.6292632655071 654.9685511609396) rotate(0 52.2607421875 11.5)"><text x="52.2607421875" y="0" font-family="Helvetica, Segoe UI Emoji" font-size="20px" fill="#1e1e1e" text-anchor="middle" style="white-space: pre;" direction="ltr" dominant-baseline="text-before-edge">new_thread</text></g><g transform="translate(478.21946269849025 725.1039155589349) rotate(0 153.9599609375 11.5)"><text x="0" y="0" font-family="Helvetica, Segoe UI Emoji" font-size="20px" fill="#1e1e1e" text-anchor="start" style="white-space: pre;" direction="ltr" dominant-baseline="text-before-edge">由 awaitable.await_suspend() 创建</text></g><g stroke-linecap="round"><g transform="translate(427.8112333136354 282.7623460676712) rotate(0 260.2406947016521 -0.2717548046260845)"><path d="M0.62 0.29 C87.33 0.16, 434.15 -0.66, 521 -0.83 M-0.52 -0.6 C85.98 -0.6, 433.16 0.14, 520.14 0.26" stroke="#1e1e1e" stroke-width="1" fill="none"></path></g><g transform="translate(427.8112333136354 282.7623460676712) rotate(0 260.2406947016521 -0.2717548046260845)"><path d="M492.42 10.77 C500.76 8.08, 511.09 4.88, 518.17 0.41 M492.09 10.24 C502.63 6.85, 514.21 2.62, 520.57 0.48" stroke="#1e1e1e" stroke-width="1" fill="none"></path></g><g transform="translate(427.8112333136354 282.7623460676712) rotate(0 260.2406947016521 -0.2717548046260845)"><path d="M492.46 -9.75 C500.78 -5.01, 511.09 -0.78, 518.17 0.41 M492.12 -10.29 C502.56 -5.81, 514.12 -2.17, 520.57 0.48" stroke="#1e1e1e" stroke-width="1" fill="none"></path></g></g><mask></mask><g stroke-linecap="round" transform="translate(866.5501051183819 729.3680318807819) rotate(0 126.99999999999994 42)"><path d="M21 0 M21 0 C103.26 -1.87, 183.14 1.02, 233 0 M21 0 C82.78 0.63, 146.49 1.24, 233 0 M233 0 C248.29 0.21, 252.74 5.27, 254 21 M233 0 C247.86 -0.67, 256.05 6.17, 254 21 M254 21 C253.9 35.97, 254.02 50.4, 254 63 M254 21 C253.99 37.41, 254.03 54.07, 254 63 M254 63 C253.99 76.04, 246.24 85.97, 233 84 M254 63 C252.33 78.13, 246.01 83.12, 233 84 M233 84 C179.98 83.29, 123.53 83.2, 21 84 M233 84 C166.24 83.76, 98.81 83.2, 21 84 M21 84 C7.28 83.15, 0.84 78.32, 0 63 M21 84 C9.06 86.11, 0.47 75.91, 0 63 M0 63 C-0.14 47.77, 1.06 34.28, 0 21 M0 63 C-0.58 53.79, -0.32 44.51, 0 21 M0 21 C-0.88 7.34, 6.85 -1.19, 21 0 M0 21 C-1.64 8.93, 6.93 0.27, 21 0" stroke="#1e1e1e" stroke-width="1" fill="none"></path></g><g transform="translate(971.8753004308819 759.8680318807819) rotate(0 21.6748046875 11.5)"><text x="21.6748046875" y="0" font-family="Helvetica, Segoe UI Emoji" font-size="20px" fill="#1e1e1e" text-anchor="middle" style="white-space: pre;" direction="ltr" dominant-baseline="text-before-edge">main</text></g><g stroke-linecap="round" transform="translate(1254.145390321377 727.4810051197283) rotate(0 127 42)"><path d="M21 0 M21 0 C93.73 -2.59, 167.39 -1.8, 233 0 M21 0 C65.42 0.72, 110.86 0.42, 233 0 M233 0 C246.12 0.34, 253.85 5.81, 254 21 M233 0 C245.36 1.93, 253.93 7.27, 254 21 M254 21 C255.63 34.02, 253.16 43.48, 254 63 M254 21 C254.06 37.53, 253.77 54.2, 254 63 M254 63 C254.48 75.74, 245.42 83.38, 233 84 M254 63 C253.6 75.73, 248.77 85.33, 233 84 M233 84 C189.73 84.86, 144.29 83.31, 21 84 M233 84 C178.81 84.98, 123.98 86.3, 21 84 M21 84 C7.33 84.81, -0.51 75.58, 0 63 M21 84 C6.33 84.72, 1.66 78.27, 0 63 M0 63 C-0.93 52.12, 1.22 41.32, 0 21 M0 63 C0.46 50.27, -0.96 38.43, 0 21 M0 21 C1.52 6.47, 6.74 0.54, 21 0 M0 21 C-1.43 5.62, 8.42 -1.86, 21 0" stroke="#1e1e1e" stroke-width="1" fill="none"></path></g><g transform="translate(1328.884648133877 757.9810051197283) rotate(0 52.2607421875 11.5)"><text x="52.2607421875" y="0" font-family="Helvetica, Segoe UI Emoji" font-size="20px" fill="#1e1e1e" text-anchor="middle" style="white-space: pre;" direction="ltr" dominant-baseline="text-before-edge">new_thread</text></g><g transform="translate(1077.5133301838637 656.6941222152873) rotate(0 10.0107421875 20.700000000000045)"><text x="0" y="0" font-family="Helvetica, Segoe UI Emoji" font-size="36px" fill="#1e1e1e" text-anchor="start" style="white-space: pre;" direction="ltr" dominant-baseline="text-before-edge">4</text></g><g stroke-linecap="round"><g transform="translate(1121.3541422713565 767.9091453132569) rotate(0 62.679035708253764 0.2535343023855603)"><path d="M-0.16 0.59 C21.16 0.62, 106.05 -0.3, 127.07 -0.41 M-1.71 -0.15 C19.57 0.1, 104.61 0.69, 126.31 0.92" stroke="#1e1e1e" stroke-width="1" fill="none"></path></g><g transform="translate(1121.3541422713565 767.9091453132569) rotate(0 62.679035708253764 0.2535343023855603)"><path d="M99.01 11.53 C103.77 7.45, 110.69 6.04, 126.77 -0.86 M97.14 10.07 C103.06 8.84, 109.26 6.98, 126.58 0.2" stroke="#1e1e1e" stroke-width="1" fill="none"></path></g><g transform="translate(1121.3541422713565 767.9091453132569) rotate(0 62.679035708253764 0.2535343023855603)"><path d="M99.18 -8.99 C103.8 -8.45, 110.68 -5.23, 126.77 -0.86 M97.32 -10.45 C103.11 -7.41, 109.28 -5, 126.58 0.2" stroke="#1e1e1e" stroke-width="1" fill="none"></path></g></g><mask></mask><g transform="translate(1141.4564574990864 741.3065359415468) rotate(0 38.3447265625 11.5)"><text x="0" y="0" font-family="Helvetica, Segoe UI Emoji" font-size="20px" fill="#1e1e1e" text-anchor="start" style="white-space: pre;" direction="ltr" dominant-baseline="text-before-edge">join 等待</text></g><g stroke-linecap="round" transform="translate(1094.432207499534 993.6223077906088) rotate(0 128 42)"><path d="M4.93 5.61 C4.93 5.61, 4.93 5.61, 4.93 5.61 M4.93 5.61 C4.93 5.61, 4.93 5.61, 4.93 5.61 M0.74 16.54 C4.94 12.38, 7.36 10.6, 13.2 2.2 M0.74 16.54 C5.59 11.95, 8.55 8.04, 13.2 2.2 M0.47 22.94 C6.74 17.8, 11.65 8.99, 18.84 1.81 M0.47 22.94 C5.4 16.91, 10.42 10.81, 18.84 1.81 M0.87 28.58 C7.46 20.14, 13.83 13.71, 23.83 2.17 M0.87 28.58 C7.32 21.95, 12.5 14.63, 23.83 2.17 M0.61 34.98 C6.3 27.45, 12.97 21.57, 28.82 2.53 M0.61 34.98 C10.92 22.15, 22.19 10.82, 28.82 2.53 M1 40.62 C8.33 31.76, 17.7 21.75, 34.46 2.13 M1 40.62 C13.36 26.86, 26.9 11.27, 34.46 2.13 M0.74 47.02 C8.71 36.6, 16.67 27.48, 39.45 2.49 M0.74 47.02 C14.17 30.14, 28.36 13.17, 39.45 2.49 M0.48 53.42 C14.55 40.29, 24.44 24.01, 45.09 2.1 M0.48 53.42 C14.04 38.25, 27.2 22.12, 45.09 2.1 M0.87 59.06 C11.87 46.35, 20.29 35.62, 50.08 2.46 M0.87 59.06 C11.01 46.63, 21.07 34.7, 50.08 2.46 M0.61 65.46 C14.32 48.47, 27.67 33.91, 55.72 2.06 M0.61 65.46 C19 45.77, 35.97 25.19, 55.72 2.06 M2.32 69.59 C22.6 45.95, 42.41 25.84, 60.71 2.42 M2.32 69.59 C19.6 48.78, 36.87 27.55, 60.71 2.42 M4.03 73.73 C19.92 58.69, 34.23 42.22, 66.35 2.03 M4.03 73.73 C21.83 54.73, 38.3 33.52, 66.35 2.03 M5.73 77.86 C27.91 54.35, 48.27 27.99, 71.34 2.39 M5.73 77.86 C24.56 55.66, 44.48 31.76, 71.34 2.39 M8.1 81.24 C21.82 65.2, 36.64 48.26, 76.98 1.99 M8.1 81.24 C24.77 60.58, 42.26 42.64, 76.98 1.99 M11.77 83.11 C38.98 53.42, 60.36 26.76, 81.97 2.35 M11.77 83.11 C33.88 56.87, 56.41 31.7, 81.97 2.35 M16.76 83.47 C44.57 52.96, 72.61 20.87, 87.61 1.96 M16.76 83.47 C39.63 58.04, 62.2 32.17, 87.61 1.96 M21.09 84.58 C36.06 64, 54.46 48.71, 92.6 2.32 M21.09 84.58 C43.68 59.1, 67.38 32.53, 92.6 2.32 M26.73 84.19 C50.97 54.54, 76.22 25.41, 97.59 2.68 M26.73 84.19 C52.27 55.62, 76.27 28.09, 97.59 2.68 M31.72 84.55 C55.63 59.25, 76.96 32.11, 103.23 2.28 M31.72 84.55 C54.86 58.39, 78.38 32.01, 103.23 2.28 M37.36 84.15 C53.11 65.08, 67.47 46.61, 108.22 2.64 M37.36 84.15 C54.19 64.15, 71.21 43.28, 108.22 2.64 M42.35 84.51 C65.12 59.89, 85.99 33.89, 113.86 2.25 M42.35 84.51 C70.89 52.11, 96.75 21.41, 113.86 2.25 M47.99 84.12 C68.26 59.93, 88.69 39.06, 118.85 2.61 M47.99 84.12 C68.13 61.48, 87.16 39.75, 118.85 2.61 M52.98 84.48 C83.49 53.01, 108.45 21.98, 124.49 2.22 M52.98 84.48 C72.08 61.55, 90.65 41.22, 124.49 2.22 M58.62 84.08 C73.91 64.48, 94.31 45.63, 129.48 2.58 M58.62 84.08 C84.09 55.05, 108.52 27.79, 129.48 2.58 M63.61 84.44 C86.37 61.67, 107.12 38.85, 135.12 2.18 M63.61 84.44 C87.63 59.2, 109.82 33.91, 135.12 2.18 M69.25 84.05 C92.69 59.27, 113.83 32.96, 140.11 2.54 M69.25 84.05 C93.04 55.68, 118.98 27.25, 140.11 2.54 M74.24 84.41 C93.04 64, 114.12 42.12, 145.75 2.15 M74.24 84.41 C89.18 68.84, 102.26 52.9, 145.75 2.15 M79.88 84.02 C103.36 55.58, 126.92 28.35, 150.74 2.51 M79.88 84.02 C107.96 51.67, 135.77 19.16, 150.74 2.51 M84.87 84.38 C104.79 63.35, 121.09 44.77, 156.38 2.11 M84.87 84.38 C112.46 51.55, 139.08 21.23, 156.38 2.11 M90.51 83.98 C109.48 61.63, 127.6 41.23, 161.37 2.47 M90.51 83.98 C116.49 53.22, 142.9 23, 161.37 2.47 M95.5 84.34 C117.97 56.2, 143.84 29.89, 167.01 2.08 M95.5 84.34 C112.67 62.92, 130.05 43.05, 167.01 2.08 M101.14 83.95 C124.46 59.44, 144.37 35.92, 172 2.44 M101.14 83.95 C118.25 64.9, 133.73 46.63, 172 2.44 M106.13 84.31 C129.53 59.97, 152.27 31.62, 177.64 2.04 M106.13 84.31 C132.8 55.47, 158.37 24.86, 177.64 2.04 M111.12 84.67 C132.9 61.12, 154.25 36.34, 182.63 2.4 M111.12 84.67 C128.66 64.87, 144.21 46.92, 182.63 2.4 M116.76 84.27 C141.52 53.03, 168.79 25.58, 188.27 2.01 M116.76 84.27 C131.31 67.96, 147.87 49.97, 188.27 2.01 M121.75 84.63 C137.25 63.38, 153.95 45.12, 193.26 2.37 M121.75 84.63 C146.69 55.56, 172.5 28.13, 193.26 2.37 M127.39 84.24 C147.93 65.55, 165.24 41.36, 198.9 1.97 M127.39 84.24 C145.76 61.99, 166.86 38.39, 198.9 1.97 M132.38 84.6 C155.3 58.34, 175.99 36.29, 203.89 2.33 M132.38 84.6 C151.87 62.85, 171.61 40.2, 203.89 2.33 M138.02 84.2 C167.51 52.21, 195.69 21.38, 208.87 2.69 M138.02 84.2 C162.51 54.99, 187.97 25.95, 208.87 2.69 M143.01 84.56 C170.02 51.16, 199.74 19.35, 214.52 2.3 M143.01 84.56 C166.95 54.36, 193.93 25.66, 214.52 2.3 M148.65 84.17 C167.98 63.84, 182.61 46.72, 219.5 2.66 M148.65 84.17 C165.72 65.79, 182.24 47.08, 219.5 2.66 M153.64 84.53 C171.73 60.3, 191.21 38.69, 225.15 2.27 M153.64 84.53 C176.82 58.49, 199.36 31.38, 225.15 2.27 M159.28 84.13 C176.21 63.81, 188.93 47.4, 230.13 2.63 M159.28 84.13 C175.45 67.12, 191.28 48.16, 230.13 2.63 M164.27 84.49 C189.59 55.58, 212.83 25.72, 236.43 1.48 M164.27 84.49 C186.4 59.06, 208.05 32.55, 236.43 1.48 M169.91 84.1 C189.14 65.82, 203.45 45.56, 241.42 1.84 M169.91 84.1 C184.42 66.79, 201.19 46.99, 241.42 1.84 M174.9 84.46 C199.34 58.49, 224.9 27.77, 245.75 2.95 M174.9 84.46 C194.03 63.44, 212.51 39.7, 245.75 2.95 M180.54 84.06 C205.25 56.94, 232.2 27.37, 249.43 4.82 M180.54 84.06 C195.74 64.48, 212.32 46.43, 249.43 4.82 M185.53 84.43 C214.41 55.2, 241.13 24.47, 253.1 6.69 M185.53 84.43 C209 56.58, 234.45 27.91, 253.1 6.69 M191.17 84.03 C214.71 58.22, 236.01 33.26, 254.81 10.82 M191.17 84.03 C210.09 62.63, 229.07 41.44, 254.81 10.82 M196.16 84.39 C218.82 59.04, 242.67 32.81, 256.51 14.96 M196.16 84.39 C216.34 64.08, 235.26 41.69, 256.51 14.96 M201.8 84 C215.72 66.3, 232.04 50.72, 258.88 18.34 M201.8 84 C218.6 65.37, 235.93 45.95, 258.88 18.34 M206.79 84.36 C225.69 63.2, 241.91 40.91, 258.62 24.73 M206.79 84.36 C222.14 66.27, 239.66 47.13, 258.62 24.73 M212.43 83.96 C225.67 68.32, 241.77 48.72, 259.01 30.38 M212.43 83.96 C230.15 63.3, 247.71 42.09, 259.01 30.38 M217.42 84.32 C229.83 65.84, 246.84 53.05, 258.75 36.77 M217.42 84.32 C229.13 69.77, 241.11 55.06, 258.75 36.77 M223.06 83.93 C232.47 71.54, 240.8 63.89, 258.49 43.17 M223.06 83.93 C236.42 69.54, 249.82 52.79, 258.49 43.17 M228.05 84.29 C237.84 70.36, 251.55 56.17, 258.88 48.82 M228.05 84.29 C236.59 75.88, 244.01 65.91, 258.88 48.82 M233.03 84.65 C241.25 74.43, 248.83 65.91, 258.62 55.21 M233.03 84.65 C239.72 75.91, 248.09 68.08, 258.62 55.21 M237.36 85.76 C244.92 75.55, 251.93 68.05, 256.39 63.88 M237.36 85.76 C244.61 77.83, 251.39 69.85, 256.39 63.88 M243.66 84.61 C248 79.34, 251.65 75.7, 255.47 71.03 M243.66 84.61 C248.15 80.27, 251.37 77, 255.47 71.03" stroke="#b2f2bb" stroke-width="0.5" fill="none"></path><path d="M21 0 M21 0 C89.81 0.05, 157.3 -0.28, 235 0 M21 0 C98.75 2, 178.02 1.83, 235 0 M235 0 C250.78 1.08, 257.57 5.47, 256 21 M235 0 C247.48 -0.64, 255.84 7.74, 256 21 M256 21 C257.11 36.29, 254.59 52.77, 256 63 M256 21 C255.87 29.82, 254.76 37.54, 256 63 M256 63 C257.83 76.14, 249.74 84.89, 235 84 M256 63 C254.76 76.56, 248.96 82.07, 235 84 M235 84 C189.16 84.5, 140.97 83.74, 21 84 M235 84 C184.89 85.14, 135.88 85.02, 21 84 M21 84 C8.18 84.83, -1.68 75.57, 0 63 M21 84 C5.14 83.29, -0.59 79.25, 0 63 M0 63 C0 46.94, -1.38 31.26, 0 21 M0 63 C0.57 51.45, -0.72 41.62, 0 21 M0 21 C1.82 8.63, 8.78 0.99, 21 0 M0 21 C-1.66 5.45, 7.6 0.36, 21 0" stroke="#1e1e1e" stroke-width="1" fill="none"></path></g><g transform="translate(1106.797441874534 1024.1223077906088) rotate(0 115.634765625 11.5)"><text x="115.634765625" y="0" font-family="Helvetica, Segoe UI Emoji" font-size="20px" fill="#1e1e1e" text-anchor="middle" style="white-space: pre;" direction="ltr" dominant-baseline="text-before-edge">resuming_on_new_thread</text></g><g stroke-linecap="round" transform="translate(1253.6963644211633 816.0857843175581) rotate(0 128 42)"><path d="M4.93 5.61 C4.93 5.61, 4.93 5.61, 4.93 5.61 M4.93 5.61 C4.93 5.61, 4.93 5.61, 4.93 5.61 M0.74 16.54 C4.74 12.73, 7.35 9.99, 13.2 2.2 M0.74 16.54 C4.52 11.56, 9.33 7.95, 13.2 2.2 M0.47 22.94 C6.64 14.96, 15.27 7.32, 18.84 1.81 M0.47 22.94 C6.47 15.2, 12.18 9.04, 18.84 1.81 M0.87 28.58 C6.17 23.25, 12.15 15.94, 23.83 2.17 M0.87 28.58 C8.56 18.28, 17.31 9.02, 23.83 2.17 M0.61 34.98 C9.39 26.45, 16.59 17.66, 28.82 2.53 M0.61 34.98 C6.36 26.53, 12.87 19.32, 28.82 2.53 M1 40.62 C13.53 26.69, 21.47 14.46, 34.46 2.13 M1 40.62 C11.59 27.13, 23.23 13.85, 34.46 2.13 M0.74 47.02 C11.41 38.42, 20.58 25.31, 39.45 2.49 M0.74 47.02 C11.45 34.37, 21.69 23.31, 39.45 2.49 M0.48 53.42 C17.41 36.71, 32.33 16.5, 45.09 2.1 M0.48 53.42 C15.73 35.42, 31.97 17.14, 45.09 2.1 M0.87 59.06 C12.91 43.16, 29.03 27.93, 50.08 2.46 M0.87 59.06 C12.08 45.39, 23.69 32.37, 50.08 2.46 M0.61 65.46 C14.16 49.35, 26.67 37.05, 55.72 2.06 M0.61 65.46 C18.7 45.91, 36.58 25.16, 55.72 2.06 M2.32 69.59 C15.96 53.89, 30.82 36.14, 60.71 2.42 M2.32 69.59 C19.69 49.3, 37.22 30.45, 60.71 2.42 M4.03 73.73 C23.57 51.39, 43.33 28.12, 66.35 2.03 M4.03 73.73 C26.66 47.75, 49.29 22.67, 66.35 2.03 M5.73 77.86 C31.64 49.76, 56.89 18.32, 71.34 2.39 M5.73 77.86 C28.02 52.06, 51.36 25.37, 71.34 2.39 M8.1 81.24 C25.13 61.15, 45.24 39.01, 76.98 1.99 M8.1 81.24 C22.67 63.67, 35.54 48.63, 76.98 1.99 M11.77 83.11 C28.43 65.61, 42.75 46.34, 81.97 2.35 M11.77 83.11 C33.3 58.8, 51.92 36.27, 81.97 2.35 M16.76 83.47 C44.73 50.95, 72.12 20.35, 87.61 1.96 M16.76 83.47 C42.95 51.02, 71.38 19.97, 87.61 1.96 M21.09 84.58 C37.01 65.2, 50.59 46.92, 92.6 2.32 M21.09 84.58 C41.99 60.68, 61.75 36.36, 92.6 2.32 M26.73 84.19 C44.08 65.4, 57.68 48.56, 97.59 2.68 M26.73 84.19 C43.99 65.06, 60.13 46.01, 97.59 2.68 M31.72 84.55 C56.99 54.71, 82.84 26.97, 103.23 2.28 M31.72 84.55 C58.16 53.14, 86.99 21.24, 103.23 2.28 M37.36 84.15 C56.36 63.37, 76.65 39.1, 108.22 2.64 M37.36 84.15 C58.61 59.96, 79.35 37, 108.22 2.64 M42.35 84.51 C66.58 58.89, 88.03 35.13, 113.86 2.25 M42.35 84.51 C61.4 63.27, 79.06 41.62, 113.86 2.25 M47.99 84.12 C63.62 64.19, 81.8 47.02, 118.85 2.61 M47.99 84.12 C71.98 56.5, 93.21 31.52, 118.85 2.61 M52.98 84.48 C75.59 57.9, 100.59 32.08, 124.49 2.22 M52.98 84.48 C69.08 65.71, 85.54 44.95, 124.49 2.22 M58.62 84.08 C80.1 59.9, 100.02 36.72, 129.48 2.58 M58.62 84.08 C76.24 62.3, 93.32 42.87, 129.48 2.58 M63.61 84.44 C86.58 55.6, 108.3 32.13, 135.12 2.18 M63.61 84.44 C86.17 57.18, 108.02 31.58, 135.12 2.18 M69.25 84.05 C93.03 58.69, 113.21 30.68, 140.11 2.54 M69.25 84.05 C87.08 62.18, 106.41 41.31, 140.11 2.54 M74.24 84.41 C97.71 54.5, 124.55 25.43, 145.75 2.15 M74.24 84.41 C99.34 55.17, 123.27 27.15, 145.75 2.15 M79.88 84.02 C99.93 62.88, 115.15 42.67, 150.74 2.51 M79.88 84.02 C100.2 60.04, 121.29 38.67, 150.74 2.51 M84.87 84.38 C103.89 65.96, 120.08 44.89, 156.38 2.11 M84.87 84.38 C100.86 64.86, 116.71 46.92, 156.38 2.11 M90.51 83.98 C111.45 63.43, 129.35 40.19, 161.37 2.47 M90.51 83.98 C113.43 58.98, 134.3 32.02, 161.37 2.47 M95.5 84.34 C111.33 65.92, 131.53 44.29, 167.01 2.08 M95.5 84.34 C116.89 58.86, 138.04 36.76, 167.01 2.08 M101.14 83.95 C117.85 60.82, 140.07 42.03, 172 2.44 M101.14 83.95 C122 59.71, 141.49 36.24, 172 2.44 M106.13 84.31 C135.89 51.19, 161.79 20.2, 177.64 2.04 M106.13 84.31 C133.95 52.86, 161.41 20.87, 177.64 2.04 M111.12 84.67 C135.71 52.45, 162.79 24.69, 182.63 2.4 M111.12 84.67 C128.07 67.06, 143.33 48.18, 182.63 2.4 M116.76 84.27 C129.92 65.4, 145.36 46.58, 188.27 2.01 M116.76 84.27 C140.17 56.82, 166.42 27.86, 188.27 2.01 M121.75 84.63 C136.92 67.09, 150.47 51.04, 193.26 2.37 M121.75 84.63 C138.73 62.8, 157.26 44.03, 193.26 2.37 M127.39 84.24 C154.89 53.91, 182.51 17.82, 198.9 1.97 M127.39 84.24 C148.91 60.02, 171.22 35.07, 198.9 1.97 M132.38 84.6 C148.1 63.14, 166.96 44.57, 203.89 2.33 M132.38 84.6 C161.38 51.07, 188.74 20.15, 203.89 2.33 M138.02 84.2 C159.3 60.08, 178.33 34.94, 208.87 2.69 M138.02 84.2 C155.06 66.64, 170.81 47.47, 208.87 2.69 M143.01 84.56 C160.81 66.89, 177.3 43.71, 214.52 2.3 M143.01 84.56 C156.83 66.64, 172.06 50.86, 214.52 2.3 M148.65 84.17 C163.78 64.97, 181 47.12, 219.5 2.66 M148.65 84.17 C173.45 54.3, 199.82 24.53, 219.5 2.66 M153.64 84.53 C170.21 65.95, 186.88 49.11, 225.15 2.27 M153.64 84.53 C175.77 58.3, 200.35 32.27, 225.15 2.27 M159.28 84.13 C172.72 65.98, 187.21 50.81, 230.13 2.63 M159.28 84.13 C185.05 56.19, 209.76 26.92, 230.13 2.63 M164.27 84.49 C186.07 62, 205.49 36.39, 236.43 1.48 M164.27 84.49 C186.43 59.13, 209.21 35.02, 236.43 1.48 M169.91 84.1 C195.54 54.6, 224.25 21.04, 241.42 1.84 M169.91 84.1 C197.21 53.08, 224.23 21.81, 241.42 1.84 M174.9 84.46 C201.76 53.88, 229.63 21.24, 245.75 2.95 M174.9 84.46 C202.66 53.19, 229.11 22.59, 245.75 2.95 M180.54 84.06 C205.67 53.63, 233.14 20.36, 249.43 4.82 M180.54 84.06 C196.41 67.09, 210.03 51.99, 249.43 4.82 M185.53 84.43 C212.37 54.16, 237.52 21.96, 253.1 6.69 M185.53 84.43 C208.06 57.84, 230.86 33.87, 253.1 6.69 M191.17 84.03 C206.04 64.92, 222.39 48.05, 254.81 10.82 M191.17 84.03 C210.98 61.62, 230.18 39.55, 254.81 10.82 M196.16 84.39 C217.16 58.81, 236.14 37.18, 256.51 14.96 M196.16 84.39 C219.17 56.46, 242.66 28.58, 256.51 14.96 M201.8 84 C214.58 70.92, 226.08 54.75, 258.88 18.34 M201.8 84 C221.53 61.53, 239.71 38.72, 258.88 18.34 M206.79 84.36 C222.2 68.87, 236.74 49.74, 258.62 24.73 M206.79 84.36 C225.67 63, 245.42 39.74, 258.62 24.73 M212.43 83.96 C231.91 63.17, 249.62 42.61, 259.01 30.38 M212.43 83.96 C227.81 68.11, 241.96 49.66, 259.01 30.38 M217.42 84.32 C225.68 75.57, 235.58 63.79, 258.75 36.77 M217.42 84.32 C229.39 70.78, 242.44 56.92, 258.75 36.77 M223.06 83.93 C232.78 73.26, 240.62 64.92, 258.49 43.17 M223.06 83.93 C237.87 68.86, 250.86 50.91, 258.49 43.17 M228.05 84.29 C235.13 74.67, 242.88 66.89, 258.88 48.82 M228.05 84.29 C239.64 72.21, 250.24 58.41, 258.88 48.82 M233.03 84.65 C239.5 78.44, 243.94 68.21, 258.62 55.21 M233.03 84.65 C241.22 75.67, 248.67 67.61, 258.62 55.21 M237.36 85.76 C242.25 81.68, 243.35 78.12, 256.39 63.88 M237.36 85.76 C241.72 80.44, 246.18 75.49, 256.39 63.88 M243.66 84.61 C246.15 80.74, 248.15 80.58, 255.47 71.03 M243.66 84.61 C247.04 81.24, 250.4 77.61, 255.47 71.03" stroke="#b2f2bb" stroke-width="0.5" fill="none"></path><path d="M21 0 M21 0 C92.16 -1.59, 159.61 -1.17, 235 0 M21 0 C98.01 -0.21, 174.14 -1.36, 235 0 M235 0 C247.68 -0.55, 255.86 7.65, 256 21 M235 0 C250.9 -1.65, 257.79 8.63, 256 21 M256 21 C253.78 30.26, 256.71 43.38, 256 63 M256 21 C256.54 34.81, 256 49.92, 256 63 M256 63 C254.92 76.61, 248.97 82.32, 235 84 M256 63 C254.08 76.8, 249.54 84.66, 235 84 M235 84 C168.9 82.84, 106.35 82.82, 21 84 M235 84 C174.72 83.8, 112.67 82.81, 21 84 M21 84 C5.38 83.38, -0.51 78.96, 0 63 M21 84 C8.94 82.54, -2.21 76.7, 0 63 M0 63 C-0.47 49.19, 0.16 38.16, 0 21 M0 63 C1.3 54.03, 1.28 43.91, 0 21 M0 21 C-1.44 5.65, 7.53 0.31, 21 0 M0 21 C-1.17 8.57, 8.6 0.79, 21 0" stroke="#1e1e1e" stroke-width="1" fill="none"></path></g><g transform="translate(1339.4453878586633 846.5857843175581) rotate(0 42.2509765625 11.5)"><text x="42.2509765625" y="0" font-family="Helvetica, Segoe UI Emoji" font-size="20px" fill="#1e1e1e" text-anchor="middle" style="white-space: pre;" direction="ltr" dominant-baseline="text-before-edge">awaitable</text></g><g stroke-linecap="round"><g transform="translate(1044.1889144017691 390.0390042828263) rotate(0 33.493285813041894 -60.46702963244235)"><path d="M0.18 0.42 C11.25 -19.86, 54.89 -101.23, 66 -121.36 M-1.19 -0.4 C10.29 -20.56, 56.97 -99.77, 68.18 -120.11" stroke="#1e1e1e" stroke-width="1" fill="none"></path></g><g transform="translate(1044.1889144017691 390.0390042828263) rotate(0 33.493285813041894 -60.46702963244235)"><path d="M63.78 -92.26 C63.39 -98.51, 66.4 -104.3, 66.41 -118.83 M63.45 -91.4 C64.59 -96.64, 65.46 -104.46, 67.5 -119.16" stroke="#1e1e1e" stroke-width="1" fill="none"></path></g><g transform="translate(1044.1889144017691 390.0390042828263) rotate(0 33.493285813041894 -60.46702963244235)"><path d="M45.97 -102.45 C50.25 -106.07, 57.9 -109.21, 66.41 -118.83 M45.64 -101.59 C50.86 -104.55, 55.82 -110.03, 67.5 -119.16" stroke="#1e1e1e" stroke-width="1" fill="none"></path></g></g><mask></mask><g transform="translate(1022.2661073886173 310.5982182117652) rotate(0 20 11.5)"><text x="0" y="0" font-family="Helvetica, Segoe UI Emoji" font-size="20px" fill="#1e1e1e" text-anchor="start" style="white-space: pre;" direction="ltr" dominant-baseline="text-before-edge">依赖</text></g><g stroke-linecap="round"><g transform="translate(126.43584921780598 941.2948506514442) rotate(0 18.845482974574217 -38.78068714035146)"><path d="M0.77 -1.15 C6.94 -13.88, 31.78 -64.25, 37.97 -76.92 M-0.28 0.86 C5.66 -12.12, 30.86 -65.11, 37.12 -78.42" stroke="#1e1e1e" stroke-width="1" fill="none"></path></g><g transform="translate(126.43584921780598 941.2948506514442) rotate(0 18.845482974574217 -38.78068714035146)"><path d="M32.43 -48.25 C37.49 -59.72, 38.14 -72.9, 38.66 -79.17 M35.24 -47.97 C35.18 -58.61, 36.59 -67.49, 38.09 -79.13" stroke="#1e1e1e" stroke-width="1" fill="none"></path></g><g transform="translate(126.43584921780598 941.2948506514442) rotate(0 18.845482974574217 -38.78068714035146)"><path d="M13.88 -57.02 C25.98 -65.27, 33.7 -75.1, 38.66 -79.17 M16.68 -56.74 C22.45 -64.59, 29.73 -70.7, 38.09 -79.13" stroke="#1e1e1e" stroke-width="1" fill="none"></path></g></g><mask></mask><g stroke-linecap="round"><g transform="translate(1282.2605252600188 985.336985964193) rotate(0 30.91583797551516 -42.468020287933655)"><path d="M-0.16 -0.11 C10.45 -14.1, 52.75 -69.14, 63.53 -83.24 M-1.7 -1.22 C8.76 -15.58, 51.64 -71.09, 62.64 -84.82" stroke="#1e1e1e" stroke-width="1" fill="none"></path></g><g transform="translate(1282.2605252600188 985.336985964193) rotate(0 30.91583797551516 -42.468020287933655)"><path d="M53.14 -56.12 C57.58 -62.8, 57.85 -72.22, 62.03 -86.63 M54.07 -55.77 C55.63 -61.83, 56.68 -68.59, 62.53 -83.9" stroke="#1e1e1e" stroke-width="1" fill="none"></path></g><g transform="translate(1282.2605252600188 985.336985964193) rotate(0 30.91583797551516 -42.468020287933655)"><path d="M36.99 -68.78 C46.21 -71.74, 51.19 -77.48, 62.03 -86.63 M37.92 -68.42 C43.22 -71.6, 47.95 -75.47, 62.53 -83.9" stroke="#1e1e1e" stroke-width="1" fill="none"></path></g></g><mask></mask><g transform="translate(1220.550066035309 645.332476613964) rotate(0 225.0390625 34.5)"><text x="0" y="0" font-family="Helvetica, Segoe UI Emoji" font-size="20px" fill="#1e1e1e" text-anchor="start" style="white-space: pre;" direction="ltr" dominant-baseline="text-before-edge">因为调用 h.resume() 而运行了 awaitable，</text><text x="0" y="23" font-family="Helvetica, Segoe UI Emoji" font-size="20px" fill="#1e1e1e" text-anchor="start" style="white-space: pre;" direction="ltr" dominant-baseline="text-before-edge">运行完成之后又继续运行父协程，之后 new_thread</text><text x="0" y="46" font-family="Helvetica, Segoe UI Emoji" font-size="20px" fill="#1e1e1e" text-anchor="start" style="white-space: pre;" direction="ltr" dominant-baseline="text-before-edge">结束，main 也跟着结束</text></g></svg>